<?xml version="1.0" encoding="UTF-8"?>
<svg width="7905px" height="15715px" viewBox="0 0 7905 15715" version="1.1" xmlns="http://www.w3.org/2000/svg" xmlns:xlink="http://www.w3.org/1999/xlink">
    <!-- Generator: Sketch 55.2 (78181) - https://sketchapp.com -->
    <title>LOGO_SygnetLogotyp</title>
    <desc>Created with Sketch.</desc>
    <defs>
        <linearGradient x1="4.52731898%" y1="21.5505112%" x2="106.308046%" y2="82.6655314%" id="linearGradient-1">
            <stop stop-color="#26A0DA" offset="0%"></stop>
            <stop stop-color="#314755" offset="100%"></stop>
        </linearGradient>
        <linearGradient x1="41.9486498%" y1="-20.2845095%" x2="58.2485027%" y2="68.7573998%" id="linearGradient-2">
            <stop stop-color="#FFFFFF" offset="0%"></stop>
            <stop stop-color="#B8CED8" stop-opacity="0.303130463" offset="49.3087584%"></stop>
            <stop stop-color="#FFFFFF" offset="100%"></stop>
        </linearGradient>
        <linearGradient x1="96.4469092%" y1="0%" x2="16.2800339%" y2="103.464207%" id="linearGradient-3">
            <stop stop-color="#FFFFFF" offset="0%"></stop>
            <stop stop-color="#B8CED8" offset="59.3202831%"></stop>
            <stop stop-color="#FFFFFF" offset="100%"></stop>
        </linearGradient>
    </defs>
    <g id="LOGO_SygnetLogotyp" stroke="none" stroke-width="1" fill="none" fill-rule="evenodd">
        <rect fill="#1C1C1C" x="0" y="0" width="7905" height="15715"></rect>
        <rect id="SafetyArea" fill="#FFFFFF" x="1212" y="5506" width="5481" height="2600"></rect>
        <rect id="SafetyArea" stroke="#FFFFFF" stroke-width="4" x="1212" y="2068" width="5481" height="2600"></rect>
        <rect id="SafetyArea" fill="#FFFFFF" x="4222" y="10169" width="2471" height="4542" rx="207"></rect>
        <rect id="SafetyArea" stroke="#FFFFFF" stroke-width="5" x="1212" y="10169" width="2471" height="4542" rx="207"></rect>
        <g id="Vertical2" transform="translate(4673.000000, 11469.000000)">
            <path d="M204.219895,1880.30571 L204.219895,1938 L150.780105,1938 L150.780105,1879.62429 L91,1779 L147.383508,1779 L179.764398,1833.96857 L212.371728,1779 L264,1779 L204.219895,1880.30571 Z M345.5,1942 C321.105939,1942 302.090977,1935.43861 288.454545,1922.31564 C274.818114,1909.19267 268,1890.79062 268,1867.10894 L268,1780 L321.636364,1780 L321.636364,1865.52514 C321.636364,1877.13972 323.719676,1885.58657 327.886364,1890.86592 C332.053051,1896.14528 338.075718,1898.78492 345.954545,1898.78492 C353.833373,1898.78492 359.85604,1896.14528 364.022727,1890.86592 C368.189415,1885.58657 370.272727,1877.13972 370.272727,1865.52514 L370.272727,1780 L423,1780 L423,1867.10894 C423,1890.79062 416.181886,1909.19267 402.545455,1922.31564 C388.909023,1935.43861 369.894061,1942 345.5,1942 Z M590.369048,1938 L589.916667,1865.54143 L555.535714,1923.69 L532.011905,1923.69 L497.630952,1868.04 L497.630952,1938 L449,1938 L449,1779 L492.880952,1779 L544.452381,1863.72429 L594.666667,1779 L638.547619,1779 L639,1938 L590.369048,1938 Z M774.145735,1910.28857 L713.949052,1910.28857 L703.312796,1938 L649,1938 L718.248815,1779 L770.751185,1779 L840,1938 L784.781991,1938 L774.145735,1910.28857 Z M760,1872 L744.5,1832 L729,1872 L760,1872 Z M910.120444,1942 C896.976162,1942 884.172012,1940.52597 871.707607,1937.57787 C859.243202,1934.62977 849.007436,1930.66123 841,1925.67213 L858.223455,1886.66667 C865.777639,1891.05102 874.238199,1894.56602 883.605388,1897.21175 C892.972577,1899.85748 901.961922,1901.18033 910.573693,1901.18033 C917.976793,1901.18033 923.264643,1900.46221 926.437401,1899.02596 C929.610158,1897.5897 931.196513,1895.43535 931.196513,1892.56284 C931.196513,1889.23678 929.119144,1886.74227 924.964342,1885.07923 C920.809541,1883.4162 913.973106,1881.60201 904.454834,1879.63661 C892.217055,1877.06647 882.019058,1874.30739 873.860539,1871.35929 C865.702019,1868.41119 858.601192,1863.57335 852.557845,1856.84563 C846.514497,1850.11791 843.492868,1841.00916 843.492868,1829.51913 C843.492868,1819.54093 846.287875,1810.46999 851.877971,1802.30601 C857.468068,1794.14204 865.815317,1787.71678 876.919968,1783.03005 C888.02462,1778.34333 901.508637,1776 917.372425,1776 C928.250451,1776 938.939461,1777.17166 949.439778,1779.51503 C959.940095,1781.85839 969.193832,1785.29779 977.201268,1789.83333 L961.110935,1828.61202 C945.549315,1820.75042 930.818876,1816.81967 916.919176,1816.81967 C903.17056,1816.81967 896.296355,1820.14569 896.296355,1826.79781 C896.296355,1829.97269 898.335954,1832.35382 902.415214,1833.94126 C906.494474,1835.5287 913.217597,1837.2295 922.584786,1839.04372 C934.671481,1841.31149 944.869478,1843.91938 953.179081,1846.86749 C961.488684,1849.81559 968.702822,1854.61563 974.821712,1861.26776 C980.940601,1867.91989 984,1876.99084 984,1888.48087 C984,1898.45907 981.204994,1907.49222 975.614897,1915.5806 C970.0248,1923.66898 961.677552,1930.09424 950.5729,1934.85656 C939.468249,1939.61888 925.984231,1942 910.120444,1942 Z M1083.5,1942 C1066.43072,1942 1051.0988,1938.44721 1037.5038,1931.34153 C1023.90879,1924.23585 1013.25953,1914.37119 1005.5557,1901.74727 C997.85186,1889.12334 994,1874.8744 994,1859 C994,1843.1256 997.85186,1828.87666 1005.5557,1816.25273 C1013.25953,1803.62881 1023.90879,1793.76415 1037.5038,1786.65847 C1051.0988,1779.55279 1066.43072,1776 1083.5,1776 C1100.56928,1776 1115.9012,1779.55279 1129.4962,1786.65847 C1143.09121,1793.76415 1153.74047,1803.62881 1161.4443,1816.25273 C1169.14814,1828.87666 1173,1843.1256 1173,1859 C1173,1874.8744 1169.14814,1889.12334 1161.4443,1901.74727 C1153.74047,1914.37119 1143.09121,1924.23585 1129.4962,1931.34153 C1115.9012,1938.44721 1100.56928,1942 1083.5,1942 Z M1083.5,1898 C1090.13273,1898 1096.12471,1896.3824 1101.47611,1893.14714 C1106.82752,1889.91189 1111.08597,1885.32241 1114.25159,1879.37857 C1117.41721,1873.43473 1119,1866.47528 1119,1858.5 C1119,1850.52472 1117.41721,1843.56527 1114.25159,1837.62143 C1111.08597,1831.67759 1106.82752,1827.08811 1101.47611,1823.85286 C1096.12471,1820.6176 1090.13273,1819 1083.5,1819 C1076.86727,1819 1070.87529,1820.6176 1065.52389,1823.85286 C1060.17248,1827.08811 1055.91403,1831.67759 1052.74841,1837.62143 C1049.58279,1843.56527 1048,1850.52472 1048,1858.5 C1048,1866.47528 1049.58279,1873.43473 1052.74841,1879.37857 C1055.91403,1885.32241 1060.17248,1889.91189 1065.52389,1893.14714 C1070.87529,1896.3824 1076.86727,1898 1083.5,1898 Z M1247.50439,1819.43143 L1247.50439,1846.68857 L1313.70475,1846.68857 L1313.70475,1887.12 L1247.50439,1887.12 L1247.50439,1938 L1194,1938 L1194,1779 L1323,1779 L1323,1819.43143 L1247.50439,1819.43143 Z M1377.33127,1820.56714 L1331,1820.56714 L1331,1779 L1477,1779 L1477,1820.56714 L1430.66873,1820.56714 L1430.66873,1938 L1377.33127,1938 L1377.33127,1820.56714 Z" id="YUMASOFT-Copy-4" fill="#314755" fill-rule="nonzero"></path>
            <g id="YUMASOFTSygnet-Copy-3">
                <rect id="backgroundBadge" fill="url(#linearGradient-1)" transform="translate(783.500000, 783.500000) rotate(-315.000000) translate(-783.500000, -783.500000) " x="230" y="230" width="1107" height="1107" rx="200"></rect>
                <path d="M713.438222,439.041539 L816.087764,439.041539 L875.279198,592.406306 L826.781815,732.714329 L713.438222,439.041539 Z" id="Combined-Shape" fill="#16303D" opacity="0.300000012"></path>
                <path d="M409.074476,1191.76599 L666.295312,1191.76599 C728.484143,1191.76599 780.976078,1177.39989 823.772693,1148.66726 C866.569308,1119.93462 902.344066,1069.82031 931.098042,998.322826 L1160.73986,376.738652 L1222.00485,439.041539 C1117.3198,727.458632 1044.63988,928.320266 1003.96511,1041.62644 C942.952957,1211.5857 851.942484,1281.0608 717.500761,1281.0608 C627.872947,1281.0608 555.524134,1281.0608 500.454324,1281.0608 L409.074476,1191.76599 Z" id="Combined-Shape" fill="#16303D" opacity="0.300000012"></path>
                <path d="M1004.00121,220 L1160.73986,376.738652 L931.098042,998.322826 C902.344066,1069.82031 866.569308,1119.93462 823.772693,1148.66726 C780.976078,1177.39989 728.484143,1191.76599 666.295312,1191.76599 C595.120469,1191.76599 462.655201,1191.76599 409.074476,1191.76599 C406.934475,1191.76599 348.370428,1133.29872 233.382335,1016.36416 C234.039795,1016.86655 595.140438,1016.36416 666.295312,1016.36416 C691.037105,1016.36416 698.726896,1009.01406 711.432141,994.313641 L480.732793,439.041539 L713.438222,439.041539 L826.781815,732.714329 L1004.00121,220 Z" id="Path" fill="#FFFFFF"></path>
                <path d="M826.781815,967.560063 L594.083252,439.041539 L713.438222,439.041539 L826.781815,732.714329 C833.253632,757.404905 837.775156,789.995964 840.346388,830.487507 C842.926776,871.123241 836.48954,903.140028 826.781815,967.560063 Z" id="Path" fill="url(#linearGradient-2)"></path>
                <path d="M1103.97274,319.971529 L1160.73986,376.738652 L931.098042,998.322826 C902.344066,1069.82031 866.569308,1119.93462 823.772693,1148.66726 C780.976078,1177.39989 728.484143,1191.76599 666.295312,1191.76599 C595.120469,1191.76599 462.655201,1191.76599 409.074476,1191.76599 C407.566439,1191.76599 378.038883,1162.73183 320.49181,1104.66351 C514.362305,1104.66351 639.885402,1104.66351 697.061099,1104.66351 C783.5,1104.66351 812.109073,1070.49419 847.640721,996.518381 C870.641726,948.630987 956.085732,723.11537 1103.97274,319.971529 Z" id="Combined-Shape" fill="url(#linearGradient-3)"></path>
            </g>
        </g>
        <g id="Vertical" transform="translate(1664.000000, 11469.000000)">
            <path d="M203.219895,1880.30571 L203.219895,1938 L149.780105,1938 L149.780105,1879.62429 L90,1779 L146.383508,1779 L178.764398,1833.96857 L211.371728,1779 L263,1779 L203.219895,1880.30571 Z M344.5,1942 C320.105939,1942 301.090977,1935.43861 287.454545,1922.31564 C273.818114,1909.19267 267,1890.79062 267,1867.10894 L267,1780 L320.636364,1780 L320.636364,1865.52514 C320.636364,1877.13972 322.719676,1885.58657 326.886364,1890.86592 C331.053051,1896.14528 337.075718,1898.78492 344.954545,1898.78492 C352.833373,1898.78492 358.85604,1896.14528 363.022727,1890.86592 C367.189415,1885.58657 369.272727,1877.13972 369.272727,1865.52514 L369.272727,1780 L422,1780 L422,1867.10894 C422,1890.79062 415.181886,1909.19267 401.545455,1922.31564 C387.909023,1935.43861 368.894061,1942 344.5,1942 Z M589.369048,1938 L588.916667,1865.54143 L554.535714,1923.69 L531.011905,1923.69 L496.630952,1868.04 L496.630952,1938 L448,1938 L448,1779 L491.880952,1779 L543.452381,1863.72429 L593.666667,1779 L637.547619,1779 L638,1938 L589.369048,1938 Z M773.145735,1910.28857 L712.949052,1910.28857 L702.312796,1938 L648,1938 L717.248815,1779 L769.751185,1779 L839,1938 L783.781991,1938 L773.145735,1910.28857 Z M759,1872 L743.5,1832 L728,1872 L759,1872 Z M909.120444,1942 C895.976162,1942 883.172012,1940.52597 870.707607,1937.57787 C858.243202,1934.62977 848.007436,1930.66123 840,1925.67213 L857.223455,1886.66667 C864.777639,1891.05102 873.238199,1894.56602 882.605388,1897.21175 C891.972577,1899.85748 900.961922,1901.18033 909.573693,1901.18033 C916.976793,1901.18033 922.264643,1900.46221 925.437401,1899.02596 C928.610158,1897.5897 930.196513,1895.43535 930.196513,1892.56284 C930.196513,1889.23678 928.119144,1886.74227 923.964342,1885.07923 C919.809541,1883.4162 912.973106,1881.60201 903.454834,1879.63661 C891.217055,1877.06647 881.019058,1874.30739 872.860539,1871.35929 C864.702019,1868.41119 857.601192,1863.57335 851.557845,1856.84563 C845.514497,1850.11791 842.492868,1841.00916 842.492868,1829.51913 C842.492868,1819.54093 845.287875,1810.46999 850.877971,1802.30601 C856.468068,1794.14204 864.815317,1787.71678 875.919968,1783.03005 C887.02462,1778.34333 900.508637,1776 916.372425,1776 C927.250451,1776 937.939461,1777.17166 948.439778,1779.51503 C958.940095,1781.85839 968.193832,1785.29779 976.201268,1789.83333 L960.110935,1828.61202 C944.549315,1820.75042 929.818876,1816.81967 915.919176,1816.81967 C902.17056,1816.81967 895.296355,1820.14569 895.296355,1826.79781 C895.296355,1829.97269 897.335954,1832.35382 901.415214,1833.94126 C905.494474,1835.5287 912.217597,1837.2295 921.584786,1839.04372 C933.671481,1841.31149 943.869478,1843.91938 952.179081,1846.86749 C960.488684,1849.81559 967.702822,1854.61563 973.821712,1861.26776 C979.940601,1867.91989 983,1876.99084 983,1888.48087 C983,1898.45907 980.204994,1907.49222 974.614897,1915.5806 C969.0248,1923.66898 960.677552,1930.09424 949.5729,1934.85656 C938.468249,1939.61888 924.984231,1942 909.120444,1942 Z M1082.5,1942 C1065.43072,1942 1050.0988,1938.44721 1036.5038,1931.34153 C1022.90879,1924.23585 1012.25953,1914.37119 1004.5557,1901.74727 C996.85186,1889.12334 993,1874.8744 993,1859 C993,1843.1256 996.85186,1828.87666 1004.5557,1816.25273 C1012.25953,1803.62881 1022.90879,1793.76415 1036.5038,1786.65847 C1050.0988,1779.55279 1065.43072,1776 1082.5,1776 C1099.56928,1776 1114.9012,1779.55279 1128.4962,1786.65847 C1142.09121,1793.76415 1152.74047,1803.62881 1160.4443,1816.25273 C1168.14814,1828.87666 1172,1843.1256 1172,1859 C1172,1874.8744 1168.14814,1889.12334 1160.4443,1901.74727 C1152.74047,1914.37119 1142.09121,1924.23585 1128.4962,1931.34153 C1114.9012,1938.44721 1099.56928,1942 1082.5,1942 Z M1082.5,1898 C1089.13273,1898 1095.12471,1896.3824 1100.47611,1893.14714 C1105.82752,1889.91189 1110.08597,1885.32241 1113.25159,1879.37857 C1116.41721,1873.43473 1118,1866.47528 1118,1858.5 C1118,1850.52472 1116.41721,1843.56527 1113.25159,1837.62143 C1110.08597,1831.67759 1105.82752,1827.08811 1100.47611,1823.85286 C1095.12471,1820.6176 1089.13273,1819 1082.5,1819 C1075.86727,1819 1069.87529,1820.6176 1064.52389,1823.85286 C1059.17248,1827.08811 1054.91403,1831.67759 1051.74841,1837.62143 C1048.58279,1843.56527 1047,1850.52472 1047,1858.5 C1047,1866.47528 1048.58279,1873.43473 1051.74841,1879.37857 C1054.91403,1885.32241 1059.17248,1889.91189 1064.52389,1893.14714 C1069.87529,1896.3824 1075.86727,1898 1082.5,1898 Z M1246.50439,1819.43143 L1246.50439,1846.68857 L1312.70475,1846.68857 L1312.70475,1887.12 L1246.50439,1887.12 L1246.50439,1938 L1193,1938 L1193,1779 L1322,1779 L1322,1819.43143 L1246.50439,1819.43143 Z M1376.33127,1820.56714 L1330,1820.56714 L1330,1779 L1476,1779 L1476,1820.56714 L1429.66873,1820.56714 L1429.66873,1938 L1376.33127,1938 L1376.33127,1820.56714 Z" id="YUMASOFT-Copy-4" fill="#FFFFFF" fill-rule="nonzero"></path>
            <g id="YUMASOFTSygnet-Copy-2">
                <rect id="backgroundBadge" fill="url(#linearGradient-1)" transform="translate(783.500000, 783.500000) rotate(-315.000000) translate(-783.500000, -783.500000) " x="230" y="230" width="1107" height="1107" rx="200"></rect>
                <path d="M713.438222,439.041539 L816.087764,439.041539 L875.279198,592.406306 L826.781815,732.714329 L713.438222,439.041539 Z" id="Combined-Shape" fill="#16303D" opacity="0.300000012"></path>
                <path d="M409.074476,1191.76599 L666.295312,1191.76599 C728.484143,1191.76599 780.976078,1177.39989 823.772693,1148.66726 C866.569308,1119.93462 902.344066,1069.82031 931.098042,998.322826 L1160.73986,376.738652 L1222.00485,439.041539 C1117.3198,727.458632 1044.63988,928.320266 1003.96511,1041.62644 C942.952957,1211.5857 851.942484,1281.0608 717.500761,1281.0608 C627.872947,1281.0608 555.524134,1281.0608 500.454324,1281.0608 L409.074476,1191.76599 Z" id="Combined-Shape" fill="#16303D" opacity="0.300000012"></path>
                <path d="M1004.00121,220 L1160.73986,376.738652 L931.098042,998.322826 C902.344066,1069.82031 866.569308,1119.93462 823.772693,1148.66726 C780.976078,1177.39989 728.484143,1191.76599 666.295312,1191.76599 C595.120469,1191.76599 462.655201,1191.76599 409.074476,1191.76599 C406.934475,1191.76599 348.370428,1133.29872 233.382335,1016.36416 C234.039795,1016.86655 595.140438,1016.36416 666.295312,1016.36416 C691.037105,1016.36416 698.726896,1009.01406 711.432141,994.313641 L480.732793,439.041539 L713.438222,439.041539 L826.781815,732.714329 L1004.00121,220 Z" id="Path" fill="#FFFFFF"></path>
                <path d="M826.781815,967.560063 L594.083252,439.041539 L713.438222,439.041539 L826.781815,732.714329 C833.253632,757.404905 837.775156,789.995964 840.346388,830.487507 C842.926776,871.123241 836.48954,903.140028 826.781815,967.560063 Z" id="Path" fill="url(#linearGradient-2)"></path>
                <path d="M1103.97274,319.971529 L1160.73986,376.738652 L931.098042,998.322826 C902.344066,1069.82031 866.569308,1119.93462 823.772693,1148.66726 C780.976078,1177.39989 728.484143,1191.76599 666.295312,1191.76599 C595.120469,1191.76599 462.655201,1191.76599 409.074476,1191.76599 C407.566439,1191.76599 378.038883,1162.73183 320.49181,1104.66351 C514.362305,1104.66351 639.885402,1104.66351 697.061099,1104.66351 C783.5,1104.66351 812.109073,1070.49419 847.640721,996.518381 C870.641726,948.630987 956.085732,723.11537 1103.97274,319.971529 Z" id="Combined-Shape" fill="url(#linearGradient-3)"></path>
            </g>
        </g>
        <g id="Horizontal2" transform="translate(1820.000000, 5999.000000)">
            <g id="YUMASOFTSygnet">
                <rect id="backgroundBadge" fill="url(#linearGradient-1)" transform="translate(783.500000, 783.500000) rotate(-315.000000) translate(-783.500000, -783.500000) " x="230" y="230" width="1107" height="1107" rx="200"></rect>
                <path d="M713.438222,439.041539 L816.087764,439.041539 L875.279198,592.406306 L826.781815,732.714329 L713.438222,439.041539 Z" id="Combined-Shape" fill="#16303D" opacity="0.300000012"></path>
                <path d="M409.074476,1191.76599 L666.295312,1191.76599 C728.484143,1191.76599 780.976078,1177.39989 823.772693,1148.66726 C866.569308,1119.93462 902.344066,1069.82031 931.098042,998.322826 L1160.73986,376.738652 L1222.00485,439.041539 C1117.3198,727.458632 1044.63988,928.320266 1003.96511,1041.62644 C942.952957,1211.5857 851.942484,1281.0608 717.500761,1281.0608 C627.872947,1281.0608 555.524134,1281.0608 500.454324,1281.0608 L409.074476,1191.76599 Z" id="Combined-Shape" fill="#16303D" opacity="0.300000012"></path>
                <path d="M1004.00121,220 L1160.73986,376.738652 L931.098042,998.322826 C902.344066,1069.82031 866.569308,1119.93462 823.772693,1148.66726 C780.976078,1177.39989 728.484143,1191.76599 666.295312,1191.76599 C595.120469,1191.76599 462.655201,1191.76599 409.074476,1191.76599 C406.934475,1191.76599 348.370428,1133.29872 233.382335,1016.36416 C234.039795,1016.86655 595.140438,1016.36416 666.295312,1016.36416 C691.037105,1016.36416 698.726896,1009.01406 711.432141,994.313641 L480.732793,439.041539 L713.438222,439.041539 L826.781815,732.714329 L1004.00121,220 Z" id="Path" fill="#FFFFFF"></path>
                <path d="M826.781815,967.560063 L594.083252,439.041539 L713.438222,439.041539 L826.781815,732.714329 C833.253632,757.404905 837.775156,789.995964 840.346388,830.487507 C842.926776,871.123241 836.48954,903.140028 826.781815,967.560063 Z" id="Path" fill="url(#linearGradient-2)"></path>
                <path d="M1103.97274,319.971529 L1160.73986,376.738652 L931.098042,998.322826 C902.344066,1069.82031 866.569308,1119.93462 823.772693,1148.66726 C780.976078,1177.39989 728.484143,1191.76599 666.295312,1191.76599 C595.120469,1191.76599 462.655201,1191.76599 409.074476,1191.76599 C407.566439,1191.76599 378.038883,1162.73183 320.49181,1104.66351 C514.362305,1104.66351 639.885402,1104.66351 697.061099,1104.66351 C783.5,1104.66351 812.109073,1070.49419 847.640721,996.518381 C870.641726,948.630987 956.085732,723.11537 1103.97274,319.971529 Z" id="Combined-Shape" fill="url(#linearGradient-3)"></path>
            </g>
            <g id="TYPEFACEdark" transform="translate(1795.000000, 634.000000)" fill="#0B5574" fill-rule="nonzero">
                <polygon id="Path" points="202.687958 189.510971 202.687958 293.317143 107.019242 293.317143 107.019242 188.284914 0 7.23714286 100.938603 7.23714286 158.907359 106.139086 217.281491 7.23714286 309.707199 7.23714286"></polygon>
                <path d="M466.900276,298 C423.179736,298 389.09995,286.22341 364.659897,262.669876 C340.219843,239.116343 328,206.087745 328,163.583093 L328,7.23714286 L424.130396,7.23714286 L424.130396,160.740439 C424.130396,181.58667 427.864237,196.747338 435.332031,206.222897 C442.799825,215.698457 453.59402,220.436165 467.71494,220.436165 C481.83586,220.436165 492.630055,215.698457 500.097849,206.222897 C507.565643,196.747338 511.299484,181.58667 511.299484,160.740439 L511.299484,7.23714286 L605.800551,7.23714286 L605.800551,163.583093 C605.800551,206.087745 593.580708,239.116343 569.140654,262.669876 C544.700601,286.22341 510.620816,298 466.900276,298 Z" id="Path"></path>
                <polygon id="Path" points="877.954476 291.188571 877.142123 160.817829 815.403265 265.441371 773.160889 265.441371 711.422031 165.313371 711.422031 291.188571 624.094041 291.188571 624.094041 5.10857143 702.89232 5.10857143 795.500607 157.548343 885.671834 5.10857143 964.470113 5.10857143 965.282466 291.188571"></polygon>
                <path d="M1208.24176,241.328914 L1100.1745,241.328914 L1081.07991,291.188571 L983.575611,291.188571 L1107.89359,5.10857143 L1202.14775,5.10857143 L1326.46573,291.188571 L1227.33636,291.188571 L1208.24176,241.328914 Z M1182.6731,171.988571 L1155.02067,100.468571 L1127.36824,171.988571 L1182.6731,171.988571 Z" id="Shape"></path>
                <path d="M1468.75488,298 C1445.17519,298 1422.20567,295.353852 1399.84562,290.061475 C1377.48557,284.769099 1359.12351,277.644854 1344.75887,268.688525 L1375.65624,198.666667 C1389.20778,206.53738 1404.38528,212.847426 1421.1892,217.596995 C1437.99311,222.346563 1454.11921,224.721311 1469.56797,224.721311 C1482.84848,224.721311 1492.33442,223.432162 1498.02607,220.853825 C1503.71772,218.275488 1506.5635,214.40804 1506.5635,209.251366 C1506.5635,203.28048 1502.83688,198.802383 1495.38353,195.81694 C1487.93018,192.831497 1475.66622,189.574699 1458.59127,186.046448 C1436.63777,181.432582 1418.34346,176.479535 1403.70779,171.187158 C1389.07213,165.894782 1376.33386,157.209988 1365.49263,145.132514 C1354.65139,133.05504 1349.23086,116.7032 1349.23086,96.0765027 C1349.23086,78.1638449 1354.24485,61.8798547 1364.273,47.2240437 C1374.30114,32.5682327 1389.27537,21.0337397 1409.19614,12.6202186 C1429.11691,4.20669746 1453.30606,0 1481.7643,0 C1501.27852,0 1520.45367,2.10334873 1539.29032,6.31010929 C1558.12696,10.5168698 1574.72736,16.6912161 1589.09199,24.8333333 L1560.22735,94.4480874 C1532.31117,80.3350843 1505.88605,73.2786885 1480.95121,73.2786885 C1456.2874,73.2786885 1443.95568,79.2494849 1443.95568,91.1912568 C1443.95568,96.8907389 1447.61454,101.165286 1454.93238,104.015027 C1462.25021,106.864768 1474.3109,109.918017 1491.11482,113.174863 C1512.79729,117.245922 1531.0916,121.927569 1545.9983,127.219945 C1560.905,132.512322 1573.84653,141.129266 1584.82328,153.071038 C1595.80003,165.01281 1601.28832,181.2968 1601.28832,201.923497 C1601.28832,219.836155 1596.27433,236.052295 1586.24618,250.572404 C1576.21804,265.092513 1561.24381,276.627006 1541.32304,285.17623 C1521.40227,293.725453 1497.21312,298 1468.75488,298 Z" id="Path"></path>
                <path d="M1779.96555,298 C1749.37738,298 1721.90258,291.622104 1697.54031,278.86612 C1673.17805,266.110137 1654.09457,248.401297 1640.28929,225.739071 C1626.484,203.076845 1619.58147,177.49741 1619.58147,149 C1619.58147,120.50259 1626.484,94.9231552 1640.28929,72.260929 C1654.09457,49.5987027 1673.17805,31.8898634 1697.54031,19.1338798 C1721.90258,6.37789615 1749.37738,0 1779.96555,0 C1810.55373,0 1838.02853,6.37789615 1862.39079,19.1338798 C1886.75305,31.8898634 1905.83654,49.5987027 1919.64182,72.260929 C1933.4471,94.9231552 1940.34964,120.50259 1940.34964,149 C1940.34964,177.49741 1933.4471,203.076845 1919.64182,225.739071 C1905.83654,248.401297 1886.75305,266.110137 1862.39079,278.86612 C1838.02853,291.622104 1810.55373,298 1779.96555,298 Z M1779.96555,219.242857 C1791.88827,219.242857 1802.65919,216.340123 1812.27866,210.534567 C1821.89812,204.729012 1829.55293,196.493347 1835.24331,185.827327 C1840.9337,175.161306 1843.77885,162.672798 1843.77885,148.361429 C1843.77885,134.050059 1840.9337,121.561551 1835.24331,110.895531 C1829.55293,100.22951 1821.89812,91.9938454 1812.27866,86.1882898 C1802.65919,80.3827342 1791.88827,77.48 1779.96555,77.48 C1768.04284,77.48 1757.27191,80.3827342 1747.65245,86.1882898 C1738.03299,91.9938454 1730.37818,100.22951 1724.68779,110.895531 C1718.99741,121.561551 1716.15226,134.050059 1716.15226,148.361429 C1716.15226,162.672798 1718.99741,175.161306 1724.68779,185.827327 C1730.37818,196.493347 1738.03299,204.729012 1747.65245,210.534567 C1757.27191,216.340123 1768.04284,219.242857 1779.96555,219.242857 Z" id="Shape"></path>
                <polygon id="Path" points="2054.63114 77.8546286 2054.63114 126.896914 2173.3964 126.896914 2173.3964 199.642971 2054.63114 199.642971 2054.63114 291.188571 1958.64278 291.188571 1958.64278 5.10857143 2190.07234 5.10857143 2190.07234 77.8546286"></polygon>
                <polygon id="Path" points="2291.39192 79.8980571 2208.36548 79.8980571 2208.36548 5.10857143 2470 5.10857143 2470 79.8980571 2386.97357 79.8980571 2386.97357 291.188571 2291.39192 291.188571"></polygon>
            </g>
        </g>
        <g id="Horizontal" transform="translate(1820.000000, 2584.000000)">
            <g id="YUMASOFTSygnet-Copy">
                <rect id="backgroundBadge" fill="url(#linearGradient-1)" transform="translate(783.500000, 783.500000) rotate(-315.000000) translate(-783.500000, -783.500000) " x="230" y="230" width="1107" height="1107" rx="200"></rect>
                <path d="M713.438222,439.041539 L816.087764,439.041539 L875.279198,592.406306 L826.781815,732.714329 L713.438222,439.041539 Z" id="Combined-Shape" fill="#16303D" opacity="0.300000012"></path>
                <path d="M409.074476,1191.76599 L666.295312,1191.76599 C728.484143,1191.76599 780.976078,1177.39989 823.772693,1148.66726 C866.569308,1119.93462 902.344066,1069.82031 931.098042,998.322826 L1160.73986,376.738652 L1222.00485,439.041539 C1117.3198,727.458632 1044.63988,928.320266 1003.96511,1041.62644 C942.952957,1211.5857 851.942484,1281.0608 717.500761,1281.0608 C627.872947,1281.0608 555.524134,1281.0608 500.454324,1281.0608 L409.074476,1191.76599 Z" id="Combined-Shape" fill="#16303D" opacity="0.300000012"></path>
                <path d="M1004.00121,220 L1160.73986,376.738652 L931.098042,998.322826 C902.344066,1069.82031 866.569308,1119.93462 823.772693,1148.66726 C780.976078,1177.39989 728.484143,1191.76599 666.295312,1191.76599 C595.120469,1191.76599 462.655201,1191.76599 409.074476,1191.76599 C406.934475,1191.76599 348.370428,1133.29872 233.382335,1016.36416 C234.039795,1016.86655 595.140438,1016.36416 666.295312,1016.36416 C691.037105,1016.36416 698.726896,1009.01406 711.432141,994.313641 L480.732793,439.041539 L713.438222,439.041539 L826.781815,732.714329 L1004.00121,220 Z" id="Path" fill="#FFFFFF"></path>
                <path d="M826.781815,967.560063 L594.083252,439.041539 L713.438222,439.041539 L826.781815,732.714329 C833.253632,757.404905 837.775156,789.995964 840.346388,830.487507 C842.926776,871.123241 836.48954,903.140028 826.781815,967.560063 Z" id="Path" fill="url(#linearGradient-2)"></path>
                <path d="M1103.97274,319.971529 L1160.73986,376.738652 L931.098042,998.322826 C902.344066,1069.82031 866.569308,1119.93462 823.772693,1148.66726 C780.976078,1177.39989 728.484143,1191.76599 666.295312,1191.76599 C595.120469,1191.76599 462.655201,1191.76599 409.074476,1191.76599 C407.566439,1191.76599 378.038883,1162.73183 320.49181,1104.66351 C514.362305,1104.66351 639.885402,1104.66351 697.061099,1104.66351 C783.5,1104.66351 812.109073,1070.49419 847.640721,996.518381 C870.641726,948.630987 956.085732,723.11537 1103.97274,319.971529 Z" id="Combined-Shape" fill="url(#linearGradient-3)"></path>
            </g>
            <g id="TYPEFACEwhite" transform="translate(1795.000000, 635.000000)" fill="#FFFFFF" fill-rule="nonzero">
                <polygon id="Path" points="202.687958 189.510971 202.687958 293.317143 107.019242 293.317143 107.019242 188.284914 0 7.23714286 100.938603 7.23714286 158.907359 106.139086 217.281491 7.23714286 309.707199 7.23714286"></polygon>
                <path d="M466.900276,298 C423.179736,298 389.09995,286.22341 364.659897,262.669876 C340.219843,239.116343 328,206.087745 328,163.583093 L328,7.23714286 L424.130396,7.23714286 L424.130396,160.740439 C424.130396,181.58667 427.864237,196.747338 435.332031,206.222897 C442.799825,215.698457 453.59402,220.436165 467.71494,220.436165 C481.83586,220.436165 492.630055,215.698457 500.097849,206.222897 C507.565643,196.747338 511.299484,181.58667 511.299484,160.740439 L511.299484,7.23714286 L605.800551,7.23714286 L605.800551,163.583093 C605.800551,206.087745 593.580708,239.116343 569.140654,262.669876 C544.700601,286.22341 510.620816,298 466.900276,298 Z" id="Path"></path>
                <polygon id="Path" points="877.954476 291.188571 877.142123 160.817829 815.403265 265.441371 773.160889 265.441371 711.422031 165.313371 711.422031 291.188571 624.094041 291.188571 624.094041 5.10857143 702.89232 5.10857143 795.500607 157.548343 885.671834 5.10857143 964.470113 5.10857143 965.282466 291.188571"></polygon>
                <path d="M1208.24176,241.328914 L1100.1745,241.328914 L1081.07991,291.188571 L983.575611,291.188571 L1107.89359,5.10857143 L1202.14775,5.10857143 L1326.46573,291.188571 L1227.33636,291.188571 L1208.24176,241.328914 Z M1182.6731,171.988571 L1155.02067,100.468571 L1127.36824,171.988571 L1182.6731,171.988571 Z" id="Shape"></path>
                <path d="M1468.75488,298 C1445.17519,298 1422.20567,295.353852 1399.84562,290.061475 C1377.48557,284.769099 1359.12351,277.644854 1344.75887,268.688525 L1375.65624,198.666667 C1389.20778,206.53738 1404.38528,212.847426 1421.1892,217.596995 C1437.99311,222.346563 1454.11921,224.721311 1469.56797,224.721311 C1482.84848,224.721311 1492.33442,223.432162 1498.02607,220.853825 C1503.71772,218.275488 1506.5635,214.40804 1506.5635,209.251366 C1506.5635,203.28048 1502.83688,198.802383 1495.38353,195.81694 C1487.93018,192.831497 1475.66622,189.574699 1458.59127,186.046448 C1436.63777,181.432582 1418.34346,176.479535 1403.70779,171.187158 C1389.07213,165.894782 1376.33386,157.209988 1365.49263,145.132514 C1354.65139,133.05504 1349.23086,116.7032 1349.23086,96.0765027 C1349.23086,78.1638449 1354.24485,61.8798547 1364.273,47.2240437 C1374.30114,32.5682327 1389.27537,21.0337397 1409.19614,12.6202186 C1429.11691,4.20669746 1453.30606,0 1481.7643,0 C1501.27852,0 1520.45367,2.10334873 1539.29032,6.31010929 C1558.12696,10.5168698 1574.72736,16.6912161 1589.09199,24.8333333 L1560.22735,94.4480874 C1532.31117,80.3350843 1505.88605,73.2786885 1480.95121,73.2786885 C1456.2874,73.2786885 1443.95568,79.2494849 1443.95568,91.1912568 C1443.95568,96.8907389 1447.61454,101.165286 1454.93238,104.015027 C1462.25021,106.864768 1474.3109,109.918017 1491.11482,113.174863 C1512.79729,117.245922 1531.0916,121.927569 1545.9983,127.219945 C1560.905,132.512322 1573.84653,141.129266 1584.82328,153.071038 C1595.80003,165.01281 1601.28832,181.2968 1601.28832,201.923497 C1601.28832,219.836155 1596.27433,236.052295 1586.24618,250.572404 C1576.21804,265.092513 1561.24381,276.627006 1541.32304,285.17623 C1521.40227,293.725453 1497.21312,298 1468.75488,298 Z" id="Path"></path>
                <path d="M1779.96555,298 C1749.37738,298 1721.90258,291.622104 1697.54031,278.86612 C1673.17805,266.110137 1654.09457,248.401297 1640.28929,225.739071 C1626.484,203.076845 1619.58147,177.49741 1619.58147,149 C1619.58147,120.50259 1626.484,94.9231552 1640.28929,72.260929 C1654.09457,49.5987027 1673.17805,31.8898634 1697.54031,19.1338798 C1721.90258,6.37789615 1749.37738,0 1779.96555,0 C1810.55373,0 1838.02853,6.37789615 1862.39079,19.1338798 C1886.75305,31.8898634 1905.83654,49.5987027 1919.64182,72.260929 C1933.4471,94.9231552 1940.34964,120.50259 1940.34964,149 C1940.34964,177.49741 1933.4471,203.076845 1919.64182,225.739071 C1905.83654,248.401297 1886.75305,266.110137 1862.39079,278.86612 C1838.02853,291.622104 1810.55373,298 1779.96555,298 Z M1779.96555,219.242857 C1791.88827,219.242857 1802.65919,216.340123 1812.27866,210.534567 C1821.89812,204.729012 1829.55293,196.493347 1835.24331,185.827327 C1840.9337,175.161306 1843.77885,162.672798 1843.77885,148.361429 C1843.77885,134.050059 1840.9337,121.561551 1835.24331,110.895531 C1829.55293,100.22951 1821.89812,91.9938454 1812.27866,86.1882898 C1802.65919,80.3827342 1791.88827,77.48 1779.96555,77.48 C1768.04284,77.48 1757.27191,80.3827342 1747.65245,86.1882898 C1738.03299,91.9938454 1730.37818,100.22951 1724.68779,110.895531 C1718.99741,121.561551 1716.15226,134.050059 1716.15226,148.361429 C1716.15226,162.672798 1718.99741,175.161306 1724.68779,185.827327 C1730.37818,196.493347 1738.03299,204.729012 1747.65245,210.534567 C1757.27191,216.340123 1768.04284,219.242857 1779.96555,219.242857 Z" id="Shape"></path>
                <polygon id="Path" points="2054.63114 77.8546286 2054.63114 126.896914 2173.3964 126.896914 2173.3964 199.642971 2054.63114 199.642971 2054.63114 291.188571 1958.64278 291.188571 1958.64278 5.10857143 2190.07234 5.10857143 2190.07234 77.8546286"></polygon>
                <polygon id="Path" points="2291.39192 79.8980571 2208.36548 79.8980571 2208.36548 5.10857143 2470 5.10857143 2470 79.8980571 2386.97357 79.8980571 2386.97357 291.188571 2291.39192 291.188571"></polygon>
            </g>
        </g>
        <text id="SCALE,-COMPOSITION," font-family="OpenSansCondensed-Bold, Open Sans Condensed" font-size="80" font-style="condensed" font-weight="bold" letter-spacing="0.439272727" fill="#FFFFFF">
            <tspan x="1212" y="1089">SCALE, COMPOSITION, SAFETY AREA</tspan>
        </text>
    </g>
</svg>