<?xml version="1.0" encoding="UTF-8"?>
<svg width="1527px" height="2503px" viewBox="0 0 1527 2503" version="1.1" xmlns="http://www.w3.org/2000/svg" xmlns:xlink="http://www.w3.org/1999/xlink">
    <!-- Generator: Sketch 55.2 (78181) - https://sketchapp.com -->
    <title>LOGOfullColor</title>
    <desc>Created with Sketch.</desc>
    <defs>
        <linearGradient x1="4.52731898%" y1="21.5505112%" x2="106.308046%" y2="82.6655314%" id="linearGradient-1">
            <stop stop-color="#26A0DA" offset="0%"></stop>
            <stop stop-color="#314755" offset="100%"></stop>
        </linearGradient>
        <linearGradient x1="41.9486498%" y1="-20.2845095%" x2="58.2485027%" y2="68.7573998%" id="linearGradient-2">
            <stop stop-color="#FFFFFF" offset="0%"></stop>
            <stop stop-color="#B8CED8" stop-opacity="0.303130463" offset="49.3087584%"></stop>
            <stop stop-color="#FFFFFF" offset="100%"></stop>
        </linearGradient>
        <linearGradient x1="96.4469092%" y1="0%" x2="16.2800339%" y2="103.464207%" id="linearGradient-3">
            <stop stop-color="#FFFFFF" offset="0%"></stop>
            <stop stop-color="#B8CED8" offset="59.3202831%"></stop>
            <stop stop-color="#FFFFFF" offset="100%"></stop>
        </linearGradient>
    </defs>
    <g id="LOGOfullColor" stroke="none" stroke-width="1" fill="none" fill-rule="evenodd">
        <rect fill="#FFFFFF" x="0" y="0" width="1527" height="2503"></rect>
        <g id="YUMASOFTSygnet" transform="translate(-20.000000, 468.000000)">
            <rect id="backgroundBadge" fill="url(#linearGradient-1)" transform="translate(783.500000, 783.500000) rotate(-315.000000) translate(-783.500000, -783.500000) " x="230" y="230" width="1107" height="1107" rx="200"></rect>
            <path d="M713.438222,439.041539 L816.087764,439.041539 L875.279198,592.406306 L826.781815,732.714329 L713.438222,439.041539 Z" id="Combined-Shape" fill="#16303D" opacity="0.300000012"></path>
            <path d="M409.074476,1191.76599 L666.295312,1191.76599 C728.484143,1191.76599 780.976078,1177.39989 823.772693,1148.66726 C866.569308,1119.93462 902.344066,1069.82031 931.098042,998.322826 L1160.73986,376.738652 L1222.00485,439.041539 C1117.3198,727.458632 1044.63988,928.320266 1003.96511,1041.62644 C942.952957,1211.5857 851.942484,1281.0608 717.500761,1281.0608 C627.872947,1281.0608 555.524134,1281.0608 500.454324,1281.0608 L409.074476,1191.76599 Z" id="Combined-Shape" fill="#16303D" opacity="0.300000012"></path>
            <path d="M1004.00121,220 L1160.73986,376.738652 L931.098042,998.322826 C902.344066,1069.82031 866.569308,1119.93462 823.772693,1148.66726 C780.976078,1177.39989 728.484143,1191.76599 666.295312,1191.76599 C595.120469,1191.76599 462.655201,1191.76599 409.074476,1191.76599 C406.934475,1191.76599 348.370428,1133.29872 233.382335,1016.36416 C234.039795,1016.86655 595.140438,1016.36416 666.295312,1016.36416 C691.037105,1016.36416 698.726896,1009.01406 711.432141,994.313641 L480.732793,439.041539 L713.438222,439.041539 L826.781815,732.714329 L1004.00121,220 Z" id="Path" fill="#FFFFFF"></path>
            <path d="M826.781815,967.560063 L594.083252,439.041539 L713.438222,439.041539 L826.781815,732.714329 C833.253632,757.404905 837.775156,789.995964 840.346388,830.487507 C842.926776,871.123241 836.48954,903.140028 826.781815,967.560063 Z" id="Path" fill="url(#linearGradient-2)"></path>
            <path d="M1103.97274,319.971529 L1160.73986,376.738652 L931.098042,998.322826 C902.344066,1069.82031 866.569308,1119.93462 823.772693,1148.66726 C780.976078,1177.39989 728.484143,1191.76599 666.295312,1191.76599 C595.120469,1191.76599 462.655201,1191.76599 409.074476,1191.76599 C407.566439,1191.76599 378.038883,1162.73183 320.49181,1104.66351 C514.362305,1104.66351 639.885402,1104.66351 697.061099,1104.66351 C783.5,1104.66351 812.109073,1070.49419 847.640721,996.518381 C870.641726,948.630987 956.085732,723.11537 1103.97274,319.971529 Z" id="Combined-Shape" fill="url(#linearGradient-3)"></path>
        </g>
    </g>
</svg>