<?xml version="1.0" encoding="UTF-8"?>
<svg width="7905px" height="15715px" viewBox="0 0 7905 15715" version="1.1" xmlns="http://www.w3.org/2000/svg" xmlns:xlink="http://www.w3.org/1999/xlink">
    <!-- Generator: Sketch 55.2 (78181) - https://sketchapp.com -->
    <title>LOGO_SygnetLogotyp1Color</title>
    <desc>Created with Sketch.</desc>
    <g id="LOGO_SygnetLogotyp1Color" stroke="none" stroke-width="1" fill="none" fill-rule="evenodd">
        <rect fill="#1C1C1C" x="0" y="0" width="7905" height="15715"></rect>
        <rect id="SafetyArea" fill="#FFFFFF" x="1212" y="5506" width="5481" height="2600"></rect>
        <rect id="SafetyArea" stroke="#FFFFFF" stroke-width="4" x="1212" y="2068" width="5481" height="2600"></rect>
        <rect id="SafetyArea" fill="#FFFFFF" x="4222" y="10169" width="2471" height="4542" rx="207"></rect>
        <rect id="SafetyArea" stroke="#FFFFFF" stroke-width="5" x="1212" y="10169" width="2471" height="4542" rx="207"></rect>
        <path d="M4877.2199,13349.3057 L4877.2199,13407 L4823.7801,13407 L4823.7801,13348.6243 L4764,13248 L4820.38351,13248 L4852.7644,13302.9686 L4885.37173,13248 L4937,13248 L4877.2199,13349.3057 Z M5018.5,13411 C4994.10594,13411 4975.09098,13404.4386 4961.45455,13391.3156 C4947.81811,13378.1927 4941,13359.7906 4941,13336.1089 L4941,13249 L4994.63636,13249 L4994.63636,13334.5251 C4994.63636,13346.1397 4996.71968,13354.5866 5000.88636,13359.8659 C5005.05305,13365.1453 5011.07572,13367.7849 5018.95455,13367.7849 C5026.83337,13367.7849 5032.85604,13365.1453 5037.02273,13359.8659 C5041.18941,13354.5866 5043.27273,13346.1397 5043.27273,13334.5251 L5043.27273,13249 L5096,13249 L5096,13336.1089 C5096,13359.7906 5089.18189,13378.1927 5075.54545,13391.3156 C5061.90902,13404.4386 5042.89406,13411 5018.5,13411 Z M5263.36905,13407 L5262.91667,13334.5414 L5228.53571,13392.69 L5205.0119,13392.69 L5170.63095,13337.04 L5170.63095,13407 L5122,13407 L5122,13248 L5165.88095,13248 L5217.45238,13332.7243 L5267.66667,13248 L5311.54762,13248 L5312,13407 L5263.36905,13407 Z M5447.14573,13379.2886 L5386.94905,13379.2886 L5376.3128,13407 L5322,13407 L5391.24882,13248 L5443.75118,13248 L5513,13407 L5457.78199,13407 L5447.14573,13379.2886 Z M5433,13341 L5417.5,13301 L5402,13341 L5433,13341 Z M5583.12044,13411 C5569.97616,13411 5557.17201,13409.526 5544.70761,13406.5779 C5532.2432,13403.6298 5522.00744,13399.6612 5514,13394.6721 L5531.22345,13355.6667 C5538.77764,13360.051 5547.2382,13363.566 5556.60539,13366.2117 C5565.97258,13368.8575 5574.96192,13370.1803 5583.57369,13370.1803 C5590.97679,13370.1803 5596.26464,13369.4622 5599.4374,13368.026 C5602.61016,13366.5897 5604.19651,13364.4354 5604.19651,13361.5628 C5604.19651,13358.2368 5602.11914,13355.7423 5597.96434,13354.0792 C5593.80954,13352.4162 5586.97311,13350.602 5577.45483,13348.6366 C5565.21705,13346.0665 5555.01906,13343.3074 5546.86054,13340.3593 C5538.70202,13337.4112 5531.60119,13332.5733 5525.55784,13325.8456 C5519.5145,13319.1179 5516.49287,13310.0092 5516.49287,13298.5191 C5516.49287,13288.5409 5519.28787,13279.47 5524.87797,13271.306 C5530.46807,13263.142 5538.81532,13256.7168 5549.91997,13252.0301 C5561.02462,13247.3433 5574.50864,13245 5590.37242,13245 C5601.25045,13245 5611.93946,13246.1717 5622.43978,13248.515 C5632.94009,13250.8584 5642.19383,13254.2978 5650.20127,13258.8333 L5634.11094,13297.612 C5618.54931,13289.7504 5603.81888,13285.8197 5589.91918,13285.8197 C5576.17056,13285.8197 5569.29635,13289.1457 5569.29635,13295.7978 C5569.29635,13298.9727 5571.33595,13301.3538 5575.41521,13302.9413 C5579.49447,13304.5287 5586.2176,13306.2295 5595.58479,13308.0437 C5607.67148,13310.3115 5617.86948,13312.9194 5626.17908,13315.8675 C5634.48868,13318.8156 5641.70282,13323.6156 5647.82171,13330.2678 C5653.9406,13336.9199 5657,13345.9908 5657,13357.4809 C5657,13367.4591 5654.20499,13376.4922 5648.6149,13384.5806 C5643.0248,13392.669 5634.67755,13399.0942 5623.5729,13403.8566 C5612.46825,13408.6189 5598.98423,13411 5583.12044,13411 Z M5756.5,13411 C5739.43072,13411 5724.0988,13407.4472 5710.5038,13400.3415 C5696.90879,13393.2358 5686.25953,13383.3712 5678.5557,13370.7473 C5670.85186,13358.1233 5667,13343.8744 5667,13328 C5667,13312.1256 5670.85186,13297.8767 5678.5557,13285.2527 C5686.25953,13272.6288 5696.90879,13262.7642 5710.5038,13255.6585 C5724.0988,13248.5528 5739.43072,13245 5756.5,13245 C5773.56928,13245 5788.9012,13248.5528 5802.4962,13255.6585 C5816.09121,13262.7642 5826.74047,13272.6288 5834.4443,13285.2527 C5842.14814,13297.8767 5846,13312.1256 5846,13328 C5846,13343.8744 5842.14814,13358.1233 5834.4443,13370.7473 C5826.74047,13383.3712 5816.09121,13393.2358 5802.4962,13400.3415 C5788.9012,13407.4472 5773.56928,13411 5756.5,13411 Z M5756.5,13367 C5763.13273,13367 5769.12471,13365.3824 5774.47611,13362.1471 C5779.82752,13358.9119 5784.08597,13354.3224 5787.25159,13348.3786 C5790.41721,13342.4347 5792,13335.4753 5792,13327.5 C5792,13319.5247 5790.41721,13312.5653 5787.25159,13306.6214 C5784.08597,13300.6776 5779.82752,13296.0881 5774.47611,13292.8529 C5769.12471,13289.6176 5763.13273,13288 5756.5,13288 C5749.86727,13288 5743.87529,13289.6176 5738.52389,13292.8529 C5733.17248,13296.0881 5728.91403,13300.6776 5725.74841,13306.6214 C5722.58279,13312.5653 5721,13319.5247 5721,13327.5 C5721,13335.4753 5722.58279,13342.4347 5725.74841,13348.3786 C5728.91403,13354.3224 5733.17248,13358.9119 5738.52389,13362.1471 C5743.87529,13365.3824 5749.86727,13367 5756.5,13367 Z M5920.50439,13288.4314 L5920.50439,13315.6886 L5986.70475,13315.6886 L5986.70475,13356.12 L5920.50439,13356.12 L5920.50439,13407 L5867,13407 L5867,13248 L5996,13248 L5996,13288.4314 L5920.50439,13288.4314 Z M6050.33127,13289.5671 L6004,13289.5671 L6004,13248 L6150,13248 L6150,13289.5671 L6103.66873,13289.5671 L6103.66873,13407 L6050.33127,13407 L6050.33127,13289.5671 Z" id="YUMASOFT-Copy-4" fill="#101010" fill-rule="nonzero"></path>
        <path d="M1867.2199,13349.3057 L1867.2199,13407 L1813.7801,13407 L1813.7801,13348.6243 L1754,13248 L1810.38351,13248 L1842.7644,13302.9686 L1875.37173,13248 L1927,13248 L1867.2199,13349.3057 Z M2008.5,13411 C1984.10594,13411 1965.09098,13404.4386 1951.45455,13391.3156 C1937.81811,13378.1927 1931,13359.7906 1931,13336.1089 L1931,13249 L1984.63636,13249 L1984.63636,13334.5251 C1984.63636,13346.1397 1986.71968,13354.5866 1990.88636,13359.8659 C1995.05305,13365.1453 2001.07572,13367.7849 2008.95455,13367.7849 C2016.83337,13367.7849 2022.85604,13365.1453 2027.02273,13359.8659 C2031.18941,13354.5866 2033.27273,13346.1397 2033.27273,13334.5251 L2033.27273,13249 L2086,13249 L2086,13336.1089 C2086,13359.7906 2079.18189,13378.1927 2065.54545,13391.3156 C2051.90902,13404.4386 2032.89406,13411 2008.5,13411 Z M2253.36905,13407 L2252.91667,13334.5414 L2218.53571,13392.69 L2195.0119,13392.69 L2160.63095,13337.04 L2160.63095,13407 L2112,13407 L2112,13248 L2155.88095,13248 L2207.45238,13332.7243 L2257.66667,13248 L2301.54762,13248 L2302,13407 L2253.36905,13407 Z M2437.14573,13379.2886 L2376.94905,13379.2886 L2366.3128,13407 L2312,13407 L2381.24882,13248 L2433.75118,13248 L2503,13407 L2447.78199,13407 L2437.14573,13379.2886 Z M2423,13341 L2407.5,13301 L2392,13341 L2423,13341 Z M2573.12044,13411 C2559.97616,13411 2547.17201,13409.526 2534.70761,13406.5779 C2522.2432,13403.6298 2512.00744,13399.6612 2504,13394.6721 L2521.22345,13355.6667 C2528.77764,13360.051 2537.2382,13363.566 2546.60539,13366.2117 C2555.97258,13368.8575 2564.96192,13370.1803 2573.57369,13370.1803 C2580.97679,13370.1803 2586.26464,13369.4622 2589.4374,13368.026 C2592.61016,13366.5897 2594.19651,13364.4354 2594.19651,13361.5628 C2594.19651,13358.2368 2592.11914,13355.7423 2587.96434,13354.0792 C2583.80954,13352.4162 2576.97311,13350.602 2567.45483,13348.6366 C2555.21705,13346.0665 2545.01906,13343.3074 2536.86054,13340.3593 C2528.70202,13337.4112 2521.60119,13332.5733 2515.55784,13325.8456 C2509.5145,13319.1179 2506.49287,13310.0092 2506.49287,13298.5191 C2506.49287,13288.5409 2509.28787,13279.47 2514.87797,13271.306 C2520.46807,13263.142 2528.81532,13256.7168 2539.91997,13252.0301 C2551.02462,13247.3433 2564.50864,13245 2580.37242,13245 C2591.25045,13245 2601.93946,13246.1717 2612.43978,13248.515 C2622.94009,13250.8584 2632.19383,13254.2978 2640.20127,13258.8333 L2624.11094,13297.612 C2608.54931,13289.7504 2593.81888,13285.8197 2579.91918,13285.8197 C2566.17056,13285.8197 2559.29635,13289.1457 2559.29635,13295.7978 C2559.29635,13298.9727 2561.33595,13301.3538 2565.41521,13302.9413 C2569.49447,13304.5287 2576.2176,13306.2295 2585.58479,13308.0437 C2597.67148,13310.3115 2607.86948,13312.9194 2616.17908,13315.8675 C2624.48868,13318.8156 2631.70282,13323.6156 2637.82171,13330.2678 C2643.9406,13336.9199 2647,13345.9908 2647,13357.4809 C2647,13367.4591 2644.20499,13376.4922 2638.6149,13384.5806 C2633.0248,13392.669 2624.67755,13399.0942 2613.5729,13403.8566 C2602.46825,13408.6189 2588.98423,13411 2573.12044,13411 Z M2746.5,13411 C2729.43072,13411 2714.0988,13407.4472 2700.5038,13400.3415 C2686.90879,13393.2358 2676.25953,13383.3712 2668.5557,13370.7473 C2660.85186,13358.1233 2657,13343.8744 2657,13328 C2657,13312.1256 2660.85186,13297.8767 2668.5557,13285.2527 C2676.25953,13272.6288 2686.90879,13262.7642 2700.5038,13255.6585 C2714.0988,13248.5528 2729.43072,13245 2746.5,13245 C2763.56928,13245 2778.9012,13248.5528 2792.4962,13255.6585 C2806.09121,13262.7642 2816.74047,13272.6288 2824.4443,13285.2527 C2832.14814,13297.8767 2836,13312.1256 2836,13328 C2836,13343.8744 2832.14814,13358.1233 2824.4443,13370.7473 C2816.74047,13383.3712 2806.09121,13393.2358 2792.4962,13400.3415 C2778.9012,13407.4472 2763.56928,13411 2746.5,13411 Z M2746.5,13367 C2753.13273,13367 2759.12471,13365.3824 2764.47611,13362.1471 C2769.82752,13358.9119 2774.08597,13354.3224 2777.25159,13348.3786 C2780.41721,13342.4347 2782,13335.4753 2782,13327.5 C2782,13319.5247 2780.41721,13312.5653 2777.25159,13306.6214 C2774.08597,13300.6776 2769.82752,13296.0881 2764.47611,13292.8529 C2759.12471,13289.6176 2753.13273,13288 2746.5,13288 C2739.86727,13288 2733.87529,13289.6176 2728.52389,13292.8529 C2723.17248,13296.0881 2718.91403,13300.6776 2715.74841,13306.6214 C2712.58279,13312.5653 2711,13319.5247 2711,13327.5 C2711,13335.4753 2712.58279,13342.4347 2715.74841,13348.3786 C2718.91403,13354.3224 2723.17248,13358.9119 2728.52389,13362.1471 C2733.87529,13365.3824 2739.86727,13367 2746.5,13367 Z M2910.50439,13288.4314 L2910.50439,13315.6886 L2976.70475,13315.6886 L2976.70475,13356.12 L2910.50439,13356.12 L2910.50439,13407 L2857,13407 L2857,13248 L2986,13248 L2986,13288.4314 L2910.50439,13288.4314 Z M3040.33127,13289.5671 L2994,13289.5671 L2994,13248 L3140,13248 L3140,13289.5671 L3093.66873,13289.5671 L3093.66873,13407 L3040.33127,13407 L3040.33127,13289.5671 Z" id="YUMASOFT-Copy-4" fill="#FFFFFF" fill-rule="nonzero"></path>
        <g id="Horizontal" transform="translate(1910.000000, 2673.000000)" fill="#FFFFFF">
            <g id="TYPEFACEwhite" transform="translate(1705.000000, 546.000000)" fill-rule="nonzero">
                <polygon id="Path" points="202.687958 189.510971 202.687958 293.317143 107.019242 293.317143 107.019242 188.284914 0 7.23714286 100.938603 7.23714286 158.907359 106.139086 217.281491 7.23714286 309.707199 7.23714286"></polygon>
                <path d="M466.900276,298 C423.179736,298 389.09995,286.22341 364.659897,262.669876 C340.219843,239.116343 328,206.087745 328,163.583093 L328,7.23714286 L424.130396,7.23714286 L424.130396,160.740439 C424.130396,181.58667 427.864237,196.747338 435.332031,206.222897 C442.799825,215.698457 453.59402,220.436165 467.71494,220.436165 C481.83586,220.436165 492.630055,215.698457 500.097849,206.222897 C507.565643,196.747338 511.299484,181.58667 511.299484,160.740439 L511.299484,7.23714286 L605.800551,7.23714286 L605.800551,163.583093 C605.800551,206.087745 593.580708,239.116343 569.140654,262.669876 C544.700601,286.22341 510.620816,298 466.900276,298 Z" id="Path"></path>
                <polygon id="Path" points="877.954476 291.188571 877.142123 160.817829 815.403265 265.441371 773.160889 265.441371 711.422031 165.313371 711.422031 291.188571 624.094041 291.188571 624.094041 5.10857143 702.89232 5.10857143 795.500607 157.548343 885.671834 5.10857143 964.470113 5.10857143 965.282466 291.188571"></polygon>
                <path d="M1208.24176,241.328914 L1100.1745,241.328914 L1081.07991,291.188571 L983.575611,291.188571 L1107.89359,5.10857143 L1202.14775,5.10857143 L1326.46573,291.188571 L1227.33636,291.188571 L1208.24176,241.328914 Z M1182.6731,171.988571 L1155.02067,100.468571 L1127.36824,171.988571 L1182.6731,171.988571 Z" id="Shape"></path>
                <path d="M1468.75488,298 C1445.17519,298 1422.20567,295.353852 1399.84562,290.061475 C1377.48557,284.769099 1359.12351,277.644854 1344.75887,268.688525 L1375.65624,198.666667 C1389.20778,206.53738 1404.38528,212.847426 1421.1892,217.596995 C1437.99311,222.346563 1454.11921,224.721311 1469.56797,224.721311 C1482.84848,224.721311 1492.33442,223.432162 1498.02607,220.853825 C1503.71772,218.275488 1506.5635,214.40804 1506.5635,209.251366 C1506.5635,203.28048 1502.83688,198.802383 1495.38353,195.81694 C1487.93018,192.831497 1475.66622,189.574699 1458.59127,186.046448 C1436.63777,181.432582 1418.34346,176.479535 1403.70779,171.187158 C1389.07213,165.894782 1376.33386,157.209988 1365.49263,145.132514 C1354.65139,133.05504 1349.23086,116.7032 1349.23086,96.0765027 C1349.23086,78.1638449 1354.24485,61.8798547 1364.273,47.2240437 C1374.30114,32.5682327 1389.27537,21.0337397 1409.19614,12.6202186 C1429.11691,4.20669746 1453.30606,0 1481.7643,0 C1501.27852,0 1520.45367,2.10334873 1539.29032,6.31010929 C1558.12696,10.5168698 1574.72736,16.6912161 1589.09199,24.8333333 L1560.22735,94.4480874 C1532.31117,80.3350843 1505.88605,73.2786885 1480.95121,73.2786885 C1456.2874,73.2786885 1443.95568,79.2494849 1443.95568,91.1912568 C1443.95568,96.8907389 1447.61454,101.165286 1454.93238,104.015027 C1462.25021,106.864768 1474.3109,109.918017 1491.11482,113.174863 C1512.79729,117.245922 1531.0916,121.927569 1545.9983,127.219945 C1560.905,132.512322 1573.84653,141.129266 1584.82328,153.071038 C1595.80003,165.01281 1601.28832,181.2968 1601.28832,201.923497 C1601.28832,219.836155 1596.27433,236.052295 1586.24618,250.572404 C1576.21804,265.092513 1561.24381,276.627006 1541.32304,285.17623 C1521.40227,293.725453 1497.21312,298 1468.75488,298 Z" id="Path"></path>
                <path d="M1779.96555,298 C1749.37738,298 1721.90258,291.622104 1697.54031,278.86612 C1673.17805,266.110137 1654.09457,248.401297 1640.28929,225.739071 C1626.484,203.076845 1619.58147,177.49741 1619.58147,149 C1619.58147,120.50259 1626.484,94.9231552 1640.28929,72.260929 C1654.09457,49.5987027 1673.17805,31.8898634 1697.54031,19.1338798 C1721.90258,6.37789615 1749.37738,0 1779.96555,0 C1810.55373,0 1838.02853,6.37789615 1862.39079,19.1338798 C1886.75305,31.8898634 1905.83654,49.5987027 1919.64182,72.260929 C1933.4471,94.9231552 1940.34964,120.50259 1940.34964,149 C1940.34964,177.49741 1933.4471,203.076845 1919.64182,225.739071 C1905.83654,248.401297 1886.75305,266.110137 1862.39079,278.86612 C1838.02853,291.622104 1810.55373,298 1779.96555,298 Z M1779.96555,219.242857 C1791.88827,219.242857 1802.65919,216.340123 1812.27866,210.534567 C1821.89812,204.729012 1829.55293,196.493347 1835.24331,185.827327 C1840.9337,175.161306 1843.77885,162.672798 1843.77885,148.361429 C1843.77885,134.050059 1840.9337,121.561551 1835.24331,110.895531 C1829.55293,100.22951 1821.89812,91.9938454 1812.27866,86.1882898 C1802.65919,80.3827342 1791.88827,77.48 1779.96555,77.48 C1768.04284,77.48 1757.27191,80.3827342 1747.65245,86.1882898 C1738.03299,91.9938454 1730.37818,100.22951 1724.68779,110.895531 C1718.99741,121.561551 1716.15226,134.050059 1716.15226,148.361429 C1716.15226,162.672798 1718.99741,175.161306 1724.68779,185.827327 C1730.37818,196.493347 1738.03299,204.729012 1747.65245,210.534567 C1757.27191,216.340123 1768.04284,219.242857 1779.96555,219.242857 Z" id="Shape"></path>
                <polygon id="Path" points="2054.63114 77.8546286 2054.63114 126.896914 2173.3964 126.896914 2173.3964 199.642971 2054.63114 199.642971 2054.63114 291.188571 1958.64278 291.188571 1958.64278 5.10857143 2190.07234 5.10857143 2190.07234 77.8546286"></polygon>
                <polygon id="Path" points="2291.39192 79.8980571 2208.36548 79.8980571 2208.36548 5.10857143 2470 5.10857143 2470 79.8980571 2386.97357 79.8980571 2386.97357 291.188571 2291.39192 291.188571"></polygon>
            </g>
            <path d="M912,136.456556 L736.656581,644.956046 L624.311862,353.175559 L393.65722,353.175559 L622.32346,904.869722 C609.730184,919.475416 602.108162,926.778154 577.584413,926.778154 C508.037868,926.778154 159.042108,927.263515 148.719546,926.798413 L58.0624019,835.924572 C-19.354134,758.322988 -19.354134,632.505962 58.0624019,554.904379 L553.581162,58.2011876 C630.997697,-19.4003959 756.514702,-19.4003959 833.931238,58.2011876 L912,136.456556 Z M1069.52302,291 L1331.88208,553.816381 C1409.37264,631.442012 1409.37264,757.298028 1331.88208,834.92366 L835.889539,1331.78078 C758.398982,1409.40641 632.761966,1409.40641 555.27141,1331.78078 L324,1100.10623 C324.041241,1100.12276 324.074522,1100.13102 324.099841,1100.13102 L579.297612,1100.13102 C640.997322,1100.13102 693.076404,1085.85307 735.536419,1057.29673 C777.996435,1028.74039 813.489821,978.933563 842.017644,907.874761 L1069.52302,291 Z" id="Shape-Copy"></path>
        </g>
        <g id="Horizontal-Copy" transform="translate(1910.000000, 6111.000000)" fill="#101010">
            <g id="TYPEFACEwhite" transform="translate(1705.000000, 546.000000)" fill-rule="nonzero">
                <polygon id="Path" points="202.687958 189.510971 202.687958 293.317143 107.019242 293.317143 107.019242 188.284914 0 7.23714286 100.938603 7.23714286 158.907359 106.139086 217.281491 7.23714286 309.707199 7.23714286"></polygon>
                <path d="M466.900276,298 C423.179736,298 389.09995,286.22341 364.659897,262.669876 C340.219843,239.116343 328,206.087745 328,163.583093 L328,7.23714286 L424.130396,7.23714286 L424.130396,160.740439 C424.130396,181.58667 427.864237,196.747338 435.332031,206.222897 C442.799825,215.698457 453.59402,220.436165 467.71494,220.436165 C481.83586,220.436165 492.630055,215.698457 500.097849,206.222897 C507.565643,196.747338 511.299484,181.58667 511.299484,160.740439 L511.299484,7.23714286 L605.800551,7.23714286 L605.800551,163.583093 C605.800551,206.087745 593.580708,239.116343 569.140654,262.669876 C544.700601,286.22341 510.620816,298 466.900276,298 Z" id="Path"></path>
                <polygon id="Path" points="877.954476 291.188571 877.142123 160.817829 815.403265 265.441371 773.160889 265.441371 711.422031 165.313371 711.422031 291.188571 624.094041 291.188571 624.094041 5.10857143 702.89232 5.10857143 795.500607 157.548343 885.671834 5.10857143 964.470113 5.10857143 965.282466 291.188571"></polygon>
                <path d="M1208.24176,241.328914 L1100.1745,241.328914 L1081.07991,291.188571 L983.575611,291.188571 L1107.89359,5.10857143 L1202.14775,5.10857143 L1326.46573,291.188571 L1227.33636,291.188571 L1208.24176,241.328914 Z M1182.6731,171.988571 L1155.02067,100.468571 L1127.36824,171.988571 L1182.6731,171.988571 Z" id="Shape"></path>
                <path d="M1468.75488,298 C1445.17519,298 1422.20567,295.353852 1399.84562,290.061475 C1377.48557,284.769099 1359.12351,277.644854 1344.75887,268.688525 L1375.65624,198.666667 C1389.20778,206.53738 1404.38528,212.847426 1421.1892,217.596995 C1437.99311,222.346563 1454.11921,224.721311 1469.56797,224.721311 C1482.84848,224.721311 1492.33442,223.432162 1498.02607,220.853825 C1503.71772,218.275488 1506.5635,214.40804 1506.5635,209.251366 C1506.5635,203.28048 1502.83688,198.802383 1495.38353,195.81694 C1487.93018,192.831497 1475.66622,189.574699 1458.59127,186.046448 C1436.63777,181.432582 1418.34346,176.479535 1403.70779,171.187158 C1389.07213,165.894782 1376.33386,157.209988 1365.49263,145.132514 C1354.65139,133.05504 1349.23086,116.7032 1349.23086,96.0765027 C1349.23086,78.1638449 1354.24485,61.8798547 1364.273,47.2240437 C1374.30114,32.5682327 1389.27537,21.0337397 1409.19614,12.6202186 C1429.11691,4.20669746 1453.30606,0 1481.7643,0 C1501.27852,0 1520.45367,2.10334873 1539.29032,6.31010929 C1558.12696,10.5168698 1574.72736,16.6912161 1589.09199,24.8333333 L1560.22735,94.4480874 C1532.31117,80.3350843 1505.88605,73.2786885 1480.95121,73.2786885 C1456.2874,73.2786885 1443.95568,79.2494849 1443.95568,91.1912568 C1443.95568,96.8907389 1447.61454,101.165286 1454.93238,104.015027 C1462.25021,106.864768 1474.3109,109.918017 1491.11482,113.174863 C1512.79729,117.245922 1531.0916,121.927569 1545.9983,127.219945 C1560.905,132.512322 1573.84653,141.129266 1584.82328,153.071038 C1595.80003,165.01281 1601.28832,181.2968 1601.28832,201.923497 C1601.28832,219.836155 1596.27433,236.052295 1586.24618,250.572404 C1576.21804,265.092513 1561.24381,276.627006 1541.32304,285.17623 C1521.40227,293.725453 1497.21312,298 1468.75488,298 Z" id="Path"></path>
                <path d="M1779.96555,298 C1749.37738,298 1721.90258,291.622104 1697.54031,278.86612 C1673.17805,266.110137 1654.09457,248.401297 1640.28929,225.739071 C1626.484,203.076845 1619.58147,177.49741 1619.58147,149 C1619.58147,120.50259 1626.484,94.9231552 1640.28929,72.260929 C1654.09457,49.5987027 1673.17805,31.8898634 1697.54031,19.1338798 C1721.90258,6.37789615 1749.37738,0 1779.96555,0 C1810.55373,0 1838.02853,6.37789615 1862.39079,19.1338798 C1886.75305,31.8898634 1905.83654,49.5987027 1919.64182,72.260929 C1933.4471,94.9231552 1940.34964,120.50259 1940.34964,149 C1940.34964,177.49741 1933.4471,203.076845 1919.64182,225.739071 C1905.83654,248.401297 1886.75305,266.110137 1862.39079,278.86612 C1838.02853,291.622104 1810.55373,298 1779.96555,298 Z M1779.96555,219.242857 C1791.88827,219.242857 1802.65919,216.340123 1812.27866,210.534567 C1821.89812,204.729012 1829.55293,196.493347 1835.24331,185.827327 C1840.9337,175.161306 1843.77885,162.672798 1843.77885,148.361429 C1843.77885,134.050059 1840.9337,121.561551 1835.24331,110.895531 C1829.55293,100.22951 1821.89812,91.9938454 1812.27866,86.1882898 C1802.65919,80.3827342 1791.88827,77.48 1779.96555,77.48 C1768.04284,77.48 1757.27191,80.3827342 1747.65245,86.1882898 C1738.03299,91.9938454 1730.37818,100.22951 1724.68779,110.895531 C1718.99741,121.561551 1716.15226,134.050059 1716.15226,148.361429 C1716.15226,162.672798 1718.99741,175.161306 1724.68779,185.827327 C1730.37818,196.493347 1738.03299,204.729012 1747.65245,210.534567 C1757.27191,216.340123 1768.04284,219.242857 1779.96555,219.242857 Z" id="Shape"></path>
                <polygon id="Path" points="2054.63114 77.8546286 2054.63114 126.896914 2173.3964 126.896914 2173.3964 199.642971 2054.63114 199.642971 2054.63114 291.188571 1958.64278 291.188571 1958.64278 5.10857143 2190.07234 5.10857143 2190.07234 77.8546286"></polygon>
                <polygon id="Path" points="2291.39192 79.8980571 2208.36548 79.8980571 2208.36548 5.10857143 2470 5.10857143 2470 79.8980571 2386.97357 79.8980571 2386.97357 291.188571 2291.39192 291.188571"></polygon>
            </g>
            <path d="M912,136.456556 L736.656581,644.956046 L624.311862,353.175559 L393.65722,353.175559 L622.32346,904.869722 C609.730184,919.475416 602.108162,926.778154 577.584413,926.778154 C508.037868,926.778154 159.042108,927.263515 148.719546,926.798413 L58.0624019,835.924572 C-19.354134,758.322988 -19.354134,632.505962 58.0624019,554.904379 L553.581162,58.2011876 C630.997697,-19.4003959 756.514702,-19.4003959 833.931238,58.2011876 L912,136.456556 Z M1069.52302,291 L1331.88208,553.816381 C1409.37264,631.442012 1409.37264,757.298028 1331.88208,834.92366 L835.889539,1331.78078 C758.398982,1409.40641 632.761966,1409.40641 555.27141,1331.78078 L324,1100.10623 C324.041241,1100.12276 324.074522,1100.13102 324.099841,1100.13102 L579.297612,1100.13102 C640.997322,1100.13102 693.076404,1085.85307 735.536419,1057.29673 C777.996435,1028.74039 813.489821,978.933563 842.017644,907.874761 L1069.52302,291 Z" id="Shape-Copy"></path>
        </g>
        <text id="SCALE,-COMPOSITION," font-family="OpenSansCondensed-Bold, Open Sans Condensed" font-size="80" font-style="condensed" font-weight="bold" letter-spacing="0.439272727" fill="#FFFFFF">
            <tspan x="1212" y="1089">SCALE, COMPOSITION, SAFETY AREA</tspan>
        </text>
        <path d="M2662,11694.4566 L2486.65658,12202.956 L2374.31186,11911.1756 L2143.65722,11911.1756 L2372.32346,12462.8697 C2359.73018,12477.4754 2352.10816,12484.7782 2327.58441,12484.7782 C2258.03787,12484.7782 1909.04211,12485.2635 1898.71955,12484.7984 L1808.0624,12393.9246 C1730.64587,12316.323 1730.64587,12190.506 1808.0624,12112.9044 L2303.58116,11616.2012 C2380.9977,11538.5996 2506.5147,11538.5996 2583.93124,11616.2012 L2662,11694.4566 Z M2819.52302,11849 L3081.88208,12111.8164 C3159.37264,12189.442 3159.37264,12315.298 3081.88208,12392.9237 L2585.88954,12889.7808 C2508.39898,12967.4064 2382.76197,12967.4064 2305.27141,12889.7808 L2074,12658.1062 C2074.04124,12658.1228 2074.07452,12658.131 2074.09984,12658.131 L2329.29761,12658.131 C2390.99732,12658.131 2443.0764,12643.8531 2485.53642,12615.2967 C2527.99643,12586.7404 2563.48982,12536.9336 2592.01764,12465.8748 L2819.52302,11849 Z" id="Shape-Copy" fill="#FFFFFF"></path>
        <path d="M5676,11694.4566 L5500.65658,12202.956 L5388.31186,11911.1756 L5157.65722,11911.1756 L5386.32346,12462.8697 C5373.73018,12477.4754 5366.10816,12484.7782 5341.58441,12484.7782 C5272.03787,12484.7782 4923.04211,12485.2635 4912.71955,12484.7984 L4822.0624,12393.9246 C4744.64587,12316.323 4744.64587,12190.506 4822.0624,12112.9044 L5317.58116,11616.2012 C5394.9977,11538.5996 5520.5147,11538.5996 5597.93124,11616.2012 L5676,11694.4566 Z M5833.52302,11849 L6095.88208,12111.8164 C6173.37264,12189.442 6173.37264,12315.298 6095.88208,12392.9237 L5599.88954,12889.7808 C5522.39898,12967.4064 5396.76197,12967.4064 5319.27141,12889.7808 L5088,12658.1062 C5088.04124,12658.1228 5088.07452,12658.131 5088.09984,12658.131 L5343.29761,12658.131 C5404.99732,12658.131 5457.0764,12643.8531 5499.53642,12615.2967 C5541.99643,12586.7404 5577.48982,12536.9336 5606.01764,12465.8748 L5833.52302,11849 Z" id="Shape-Copy-2" fill="#101010"></path>
    </g>
</svg>