<?xml version="1.0" encoding="UTF-8"?>
<svg width="1527px" height="2503px" viewBox="0 0 1527 2503" version="1.1" xmlns="http://www.w3.org/2000/svg" xmlns:xlink="http://www.w3.org/1999/xlink">
    <!-- Generator: Sketch 55.2 (78181) - https://sketchapp.com -->
    <title>LOGO1ColorInversed</title>
    <desc>Created with Sketch.</desc>
    <g id="LOGO1ColorInversed" stroke="none" stroke-width="1" fill="none" fill-rule="evenodd">
        <rect fill="#FFFFFF" x="0" y="0" width="1527" height="2503"></rect>
        <path d="M975.931217,704.561577 L804.25401,1202.27305 L694.25828,916.682802 L468.426338,916.682802 L692.311453,1456.67256 C679.981486,1470.96839 672.518831,1478.11619 648.507843,1478.11619 C580.41543,1478.11619 238.716735,1478.59126 228.610006,1478.13602 L139.848389,1389.19011 C64.0505369,1313.23487 64.0505369,1190.0871 139.848389,1114.13187 L625.00647,627.966427 C700.804322,552.011191 823.696923,552.011191 899.494775,627.966427 L975.931217,704.561577 Z M1130.09087,855.441799 L1387.07315,1112.89142 C1462.97562,1188.93192 1462.97562,1312.21793 1387.07315,1388.25843 L901.245456,1874.96962 C825.342988,1951.01013 702.280772,1951.01013 626.378304,1874.96962 L399.846561,1648.02592 C399.886957,1648.04211 399.919555,1648.05021 399.944356,1648.05021 L649.912114,1648.05021 C710.347352,1648.05021 761.359127,1634.06381 802.948969,1606.09059 C844.538811,1578.11738 879.304798,1529.32762 907.247973,1459.71985 L1130.09087,855.441799 Z" id="Shape" fill="#101010"></path>
    </g>
</svg>