<?xml version="1.0" encoding="UTF-8"?>
<svg width="9729px" height="3080px" viewBox="0 0 9729 3080" version="1.1" xmlns="http://www.w3.org/2000/svg" xmlns:xlink="http://www.w3.org/1999/xlink">
    <!-- Generator: Sketch 55.2 (78181) - https://sketchapp.com -->
    <title>YUMASOFTLogotype</title>
    <desc>Created with Sketch.</desc>
    <g id="YUMASOFTLogotype" stroke="none" stroke-width="1" fill="none" fill-rule="evenodd">
        <rect fill="#101010" x="0" y="0" width="9729" height="3080"></rect>
        <g id="Group-4" transform="translate(1090.000000, 583.000000)" fill="#BBCFD9" fill-rule="nonzero">
            <polygon id="Path" points="238.219895 222.58 238.219895 344.5 125.780105 344.5 125.780105 221.14 0 8.5 118.633508 8.5 186.764398 124.66 255.371728 8.5 364 8.5"></polygon>
            <path d="M548.75,350 C497.36509,350 457.310994,336.168434 428.58651,308.504888 C399.862026,280.841342 385.5,242.049365 385.5,192.127793 L385.5,8.5 L498.482405,8.5 L498.482405,188.789106 C498.482405,213.272934 502.870802,231.079088 511.647727,242.208101 C520.424653,253.337113 533.11111,258.901536 549.707478,258.901536 C566.303846,258.901536 578.990303,253.337113 587.767229,242.208101 C596.544154,231.079088 600.932551,213.272934 600.932551,188.789106 L600.932551,8.5 L712,8.5 L712,192.127793 C712,242.049365 697.637974,280.841342 668.91349,308.504888 C640.189006,336.168434 600.13491,350 548.75,350 Z" id="Path"></path>
            <polygon id="Path" points="1031.8631 342 1030.90833 188.88 958.346429 311.76 908.69881 311.76 836.136905 194.16 836.136905 342 733.5 342 733.5 6 826.111905 6 934.954762 185.04 1040.93333 6 1133.54524 6 1134.5 342"></polygon>
            <path d="M1420.05095,283.44 L1293.0391,283.44 L1270.59716,342 L1156,342 L1302.11137,6 L1412.88863,6 L1559,342 L1442.49289,342 L1420.05095,283.44 Z M1390,202 L1357.5,118 L1325,202 L1390,202 Z" id="Shape"></path>
            <path d="M1726.23296,350 C1698.51967,350 1671.52351,346.892108 1645.24366,340.67623 C1618.96381,334.460351 1597.38281,326.092949 1580.5,315.57377 L1616.81379,233.333333 C1632.74097,242.57746 1650.57914,249.988588 1670.32884,255.56694 C1690.07855,261.145292 1709.0316,263.934426 1727.18859,263.934426 C1742.79723,263.934426 1753.94608,262.420325 1760.6355,259.392077 C1767.32491,256.363828 1770.66957,251.821524 1770.66957,245.765027 C1770.66957,238.752242 1766.28966,233.492732 1757.52971,229.986339 C1748.76977,226.479946 1734.35588,222.654848 1714.28764,218.510929 C1688.48561,213.091958 1666.98424,207.274621 1649.78288,201.058743 C1632.58153,194.842865 1617.61021,184.642603 1604.86846,170.45765 C1592.12672,156.272698 1585.75594,137.067516 1585.75594,112.84153 C1585.75594,91.8031735 1591.64891,72.6776817 1603.43502,55.4644809 C1615.22114,38.2512801 1632.82041,24.7040567 1656.23336,14.8224044 C1679.64631,4.94075205 1708.0759,0 1741.52298,0 C1764.45812,0 1786.99474,2.47037602 1809.13352,7.41120219 C1831.2723,12.3520283 1850.7828,19.6037773 1867.66561,29.1666667 L1833.74089,110.928962 C1800.9309,94.3532869 1769.87336,86.0655738 1740.56735,86.0655738 C1711.57989,86.0655738 1697.08637,93.0782541 1697.08637,107.103825 C1697.08637,113.797848 1701.38664,118.818289 1709.98732,122.165301 C1718.588,125.512312 1732.76298,129.098342 1752.51268,132.923497 C1777.99617,137.704942 1799.49754,143.203521 1817.01743,149.419399 C1834.53733,155.635277 1849.74756,165.75585 1862.64857,179.781421 C1875.54959,193.806992 1882,212.932484 1882,237.15847 C1882,258.196827 1876.10703,277.242629 1864.32092,294.296448 C1852.53481,311.350267 1834.93554,324.897491 1811.52258,334.938525 C1788.10963,344.979558 1759.68004,350 1726.23296,350 Z" id="Path"></path>
            <path d="M2092,350 C2056.04961,350 2023.75837,342.509182 1995.12532,327.527322 C1966.49226,312.545462 1944.06337,291.74649 1927.83797,265.129781 C1911.61258,238.513073 1903.5,208.470113 1903.5,175 C1903.5,141.529887 1911.61258,111.486927 1927.83797,84.8702186 C1944.06337,58.2535099 1966.49226,37.4545376 1995.12532,22.4726776 C2023.75837,7.49081762 2056.04961,0 2092,0 C2127.95039,0 2160.24163,7.49081762 2188.87468,22.4726776 C2217.50774,37.4545376 2239.93663,58.2535099 2256.16203,84.8702186 C2272.38742,111.486927 2280.5,141.529887 2280.5,175 C2280.5,208.470113 2272.38742,238.513073 2256.16203,265.129781 C2239.93663,291.74649 2217.50774,312.545462 2188.87468,327.527322 C2160.24163,342.509182 2127.95039,350 2092,350 Z M2092,257.5 C2106.01281,257.5 2118.67192,254.090748 2129.97771,247.272143 C2141.2835,240.453537 2150.28022,230.780777 2156.96815,218.253571 C2163.65608,205.726366 2167,191.058655 2167,174.25 C2167,157.441345 2163.65608,142.773634 2156.96815,130.246429 C2150.28022,117.719223 2141.2835,108.046463 2129.97771,101.227857 C2118.67192,94.4092516 2106.01281,91 2092,91 C2077.98719,91 2065.32808,94.4092516 2054.02229,101.227857 C2042.7165,108.046463 2033.71978,117.719223 2027.03185,130.246429 C2020.34392,142.773634 2017,157.441345 2017,174.25 C2017,191.058655 2020.34392,205.726366 2027.03185,218.253571 C2033.71978,230.780777 2042.7165,240.453537 2054.02229,247.272143 C2065.32808,254.090748 2077.98719,257.5 2092,257.5 Z" id="Shape"></path>
            <polygon id="Path" points="2414.81547 91.44 2414.81547 149.04 2554.4007 149.04 2554.4007 234.48 2414.81547 234.48 2414.81547 342 2302 342 2302 6 2574 6 2574 91.44"></polygon>
            <polygon id="Path" points="2693.08127 93.84 2595.5 93.84 2595.5 6 2903 6 2903 93.84 2805.41873 93.84 2805.41873 342 2693.08127 342"></polygon>
        </g>
        <g id="Group-4-Copy" transform="translate(4864.000000, 583.000000)" fill="#255C78" fill-rule="nonzero">
            <polygon id="Path" points="238.219895 222.58 238.219895 344.5 125.780105 344.5 125.780105 221.14 0 8.5 118.633508 8.5 186.764398 124.66 255.371728 8.5 364 8.5"></polygon>
            <path d="M548.75,350 C497.36509,350 457.310994,336.168434 428.58651,308.504888 C399.862026,280.841342 385.5,242.049365 385.5,192.127793 L385.5,8.5 L498.482405,8.5 L498.482405,188.789106 C498.482405,213.272934 502.870802,231.079088 511.647727,242.208101 C520.424653,253.337113 533.11111,258.901536 549.707478,258.901536 C566.303846,258.901536 578.990303,253.337113 587.767229,242.208101 C596.544154,231.079088 600.932551,213.272934 600.932551,188.789106 L600.932551,8.5 L712,8.5 L712,192.127793 C712,242.049365 697.637974,280.841342 668.91349,308.504888 C640.189006,336.168434 600.13491,350 548.75,350 Z" id="Path"></path>
            <polygon id="Path" points="1031.8631 342 1030.90833 188.88 958.346429 311.76 908.69881 311.76 836.136905 194.16 836.136905 342 733.5 342 733.5 6 826.111905 6 934.954762 185.04 1040.93333 6 1133.54524 6 1134.5 342"></polygon>
            <path d="M1420.05095,283.44 L1293.0391,283.44 L1270.59716,342 L1156,342 L1302.11137,6 L1412.88863,6 L1559,342 L1442.49289,342 L1420.05095,283.44 Z M1390,202 L1357.5,118 L1325,202 L1390,202 Z" id="Shape"></path>
            <path d="M1726.23296,350 C1698.51967,350 1671.52351,346.892108 1645.24366,340.67623 C1618.96381,334.460351 1597.38281,326.092949 1580.5,315.57377 L1616.81379,233.333333 C1632.74097,242.57746 1650.57914,249.988588 1670.32884,255.56694 C1690.07855,261.145292 1709.0316,263.934426 1727.18859,263.934426 C1742.79723,263.934426 1753.94608,262.420325 1760.6355,259.392077 C1767.32491,256.363828 1770.66957,251.821524 1770.66957,245.765027 C1770.66957,238.752242 1766.28966,233.492732 1757.52971,229.986339 C1748.76977,226.479946 1734.35588,222.654848 1714.28764,218.510929 C1688.48561,213.091958 1666.98424,207.274621 1649.78288,201.058743 C1632.58153,194.842865 1617.61021,184.642603 1604.86846,170.45765 C1592.12672,156.272698 1585.75594,137.067516 1585.75594,112.84153 C1585.75594,91.8031735 1591.64891,72.6776817 1603.43502,55.4644809 C1615.22114,38.2512801 1632.82041,24.7040567 1656.23336,14.8224044 C1679.64631,4.94075205 1708.0759,0 1741.52298,0 C1764.45812,0 1786.99474,2.47037602 1809.13352,7.41120219 C1831.2723,12.3520283 1850.7828,19.6037773 1867.66561,29.1666667 L1833.74089,110.928962 C1800.9309,94.3532869 1769.87336,86.0655738 1740.56735,86.0655738 C1711.57989,86.0655738 1697.08637,93.0782541 1697.08637,107.103825 C1697.08637,113.797848 1701.38664,118.818289 1709.98732,122.165301 C1718.588,125.512312 1732.76298,129.098342 1752.51268,132.923497 C1777.99617,137.704942 1799.49754,143.203521 1817.01743,149.419399 C1834.53733,155.635277 1849.74756,165.75585 1862.64857,179.781421 C1875.54959,193.806992 1882,212.932484 1882,237.15847 C1882,258.196827 1876.10703,277.242629 1864.32092,294.296448 C1852.53481,311.350267 1834.93554,324.897491 1811.52258,334.938525 C1788.10963,344.979558 1759.68004,350 1726.23296,350 Z" id="Path"></path>
            <path d="M2092,350 C2056.04961,350 2023.75837,342.509182 1995.12532,327.527322 C1966.49226,312.545462 1944.06337,291.74649 1927.83797,265.129781 C1911.61258,238.513073 1903.5,208.470113 1903.5,175 C1903.5,141.529887 1911.61258,111.486927 1927.83797,84.8702186 C1944.06337,58.2535099 1966.49226,37.4545376 1995.12532,22.4726776 C2023.75837,7.49081762 2056.04961,0 2092,0 C2127.95039,0 2160.24163,7.49081762 2188.87468,22.4726776 C2217.50774,37.4545376 2239.93663,58.2535099 2256.16203,84.8702186 C2272.38742,111.486927 2280.5,141.529887 2280.5,175 C2280.5,208.470113 2272.38742,238.513073 2256.16203,265.129781 C2239.93663,291.74649 2217.50774,312.545462 2188.87468,327.527322 C2160.24163,342.509182 2127.95039,350 2092,350 Z M2092,257.5 C2106.01281,257.5 2118.67192,254.090748 2129.97771,247.272143 C2141.2835,240.453537 2150.28022,230.780777 2156.96815,218.253571 C2163.65608,205.726366 2167,191.058655 2167,174.25 C2167,157.441345 2163.65608,142.773634 2156.96815,130.246429 C2150.28022,117.719223 2141.2835,108.046463 2129.97771,101.227857 C2118.67192,94.4092516 2106.01281,91 2092,91 C2077.98719,91 2065.32808,94.4092516 2054.02229,101.227857 C2042.7165,108.046463 2033.71978,117.719223 2027.03185,130.246429 C2020.34392,142.773634 2017,157.441345 2017,174.25 C2017,191.058655 2020.34392,205.726366 2027.03185,218.253571 C2033.71978,230.780777 2042.7165,240.453537 2054.02229,247.272143 C2065.32808,254.090748 2077.98719,257.5 2092,257.5 Z" id="Shape"></path>
            <polygon id="Path" points="2414.81547 91.44 2414.81547 149.04 2554.4007 149.04 2554.4007 234.48 2414.81547 234.48 2414.81547 342 2302 342 2302 6 2574 6 2574 91.44"></polygon>
            <polygon id="Path" points="2693.08127 93.84 2595.5 93.84 2595.5 6 2903 6 2903 93.84 2805.41873 93.84 2805.41873 342 2693.08127 342"></polygon>
        </g>
        <g id="Group-4-Copy-2" transform="translate(4864.000000, 1388.000000)" fill="#314755" fill-rule="nonzero">
            <polygon id="Path" points="238.219895 222.58 238.219895 344.5 125.780105 344.5 125.780105 221.14 0 8.5 118.633508 8.5 186.764398 124.66 255.371728 8.5 364 8.5"></polygon>
            <path d="M548.75,350 C497.36509,350 457.310994,336.168434 428.58651,308.504888 C399.862026,280.841342 385.5,242.049365 385.5,192.127793 L385.5,8.5 L498.482405,8.5 L498.482405,188.789106 C498.482405,213.272934 502.870802,231.079088 511.647727,242.208101 C520.424653,253.337113 533.11111,258.901536 549.707478,258.901536 C566.303846,258.901536 578.990303,253.337113 587.767229,242.208101 C596.544154,231.079088 600.932551,213.272934 600.932551,188.789106 L600.932551,8.5 L712,8.5 L712,192.127793 C712,242.049365 697.637974,280.841342 668.91349,308.504888 C640.189006,336.168434 600.13491,350 548.75,350 Z" id="Path"></path>
            <polygon id="Path" points="1031.8631 342 1030.90833 188.88 958.346429 311.76 908.69881 311.76 836.136905 194.16 836.136905 342 733.5 342 733.5 6 826.111905 6 934.954762 185.04 1040.93333 6 1133.54524 6 1134.5 342"></polygon>
            <path d="M1420.05095,283.44 L1293.0391,283.44 L1270.59716,342 L1156,342 L1302.11137,6 L1412.88863,6 L1559,342 L1442.49289,342 L1420.05095,283.44 Z M1390,202 L1357.5,118 L1325,202 L1390,202 Z" id="Shape"></path>
            <path d="M1726.23296,350 C1698.51967,350 1671.52351,346.892108 1645.24366,340.67623 C1618.96381,334.460351 1597.38281,326.092949 1580.5,315.57377 L1616.81379,233.333333 C1632.74097,242.57746 1650.57914,249.988588 1670.32884,255.56694 C1690.07855,261.145292 1709.0316,263.934426 1727.18859,263.934426 C1742.79723,263.934426 1753.94608,262.420325 1760.6355,259.392077 C1767.32491,256.363828 1770.66957,251.821524 1770.66957,245.765027 C1770.66957,238.752242 1766.28966,233.492732 1757.52971,229.986339 C1748.76977,226.479946 1734.35588,222.654848 1714.28764,218.510929 C1688.48561,213.091958 1666.98424,207.274621 1649.78288,201.058743 C1632.58153,194.842865 1617.61021,184.642603 1604.86846,170.45765 C1592.12672,156.272698 1585.75594,137.067516 1585.75594,112.84153 C1585.75594,91.8031735 1591.64891,72.6776817 1603.43502,55.4644809 C1615.22114,38.2512801 1632.82041,24.7040567 1656.23336,14.8224044 C1679.64631,4.94075205 1708.0759,0 1741.52298,0 C1764.45812,0 1786.99474,2.47037602 1809.13352,7.41120219 C1831.2723,12.3520283 1850.7828,19.6037773 1867.66561,29.1666667 L1833.74089,110.928962 C1800.9309,94.3532869 1769.87336,86.0655738 1740.56735,86.0655738 C1711.57989,86.0655738 1697.08637,93.0782541 1697.08637,107.103825 C1697.08637,113.797848 1701.38664,118.818289 1709.98732,122.165301 C1718.588,125.512312 1732.76298,129.098342 1752.51268,132.923497 C1777.99617,137.704942 1799.49754,143.203521 1817.01743,149.419399 C1834.53733,155.635277 1849.74756,165.75585 1862.64857,179.781421 C1875.54959,193.806992 1882,212.932484 1882,237.15847 C1882,258.196827 1876.10703,277.242629 1864.32092,294.296448 C1852.53481,311.350267 1834.93554,324.897491 1811.52258,334.938525 C1788.10963,344.979558 1759.68004,350 1726.23296,350 Z" id="Path"></path>
            <path d="M2092,350 C2056.04961,350 2023.75837,342.509182 1995.12532,327.527322 C1966.49226,312.545462 1944.06337,291.74649 1927.83797,265.129781 C1911.61258,238.513073 1903.5,208.470113 1903.5,175 C1903.5,141.529887 1911.61258,111.486927 1927.83797,84.8702186 C1944.06337,58.2535099 1966.49226,37.4545376 1995.12532,22.4726776 C2023.75837,7.49081762 2056.04961,0 2092,0 C2127.95039,0 2160.24163,7.49081762 2188.87468,22.4726776 C2217.50774,37.4545376 2239.93663,58.2535099 2256.16203,84.8702186 C2272.38742,111.486927 2280.5,141.529887 2280.5,175 C2280.5,208.470113 2272.38742,238.513073 2256.16203,265.129781 C2239.93663,291.74649 2217.50774,312.545462 2188.87468,327.527322 C2160.24163,342.509182 2127.95039,350 2092,350 Z M2092,257.5 C2106.01281,257.5 2118.67192,254.090748 2129.97771,247.272143 C2141.2835,240.453537 2150.28022,230.780777 2156.96815,218.253571 C2163.65608,205.726366 2167,191.058655 2167,174.25 C2167,157.441345 2163.65608,142.773634 2156.96815,130.246429 C2150.28022,117.719223 2141.2835,108.046463 2129.97771,101.227857 C2118.67192,94.4092516 2106.01281,91 2092,91 C2077.98719,91 2065.32808,94.4092516 2054.02229,101.227857 C2042.7165,108.046463 2033.71978,117.719223 2027.03185,130.246429 C2020.34392,142.773634 2017,157.441345 2017,174.25 C2017,191.058655 2020.34392,205.726366 2027.03185,218.253571 C2033.71978,230.780777 2042.7165,240.453537 2054.02229,247.272143 C2065.32808,254.090748 2077.98719,257.5 2092,257.5 Z" id="Shape"></path>
            <polygon id="Path" points="2414.81547 91.44 2414.81547 149.04 2554.4007 149.04 2554.4007 234.48 2414.81547 234.48 2414.81547 342 2302 342 2302 6 2574 6 2574 91.44"></polygon>
            <polygon id="Path" points="2693.08127 93.84 2595.5 93.84 2595.5 6 2903 6 2903 93.84 2805.41873 93.84 2805.41873 342 2693.08127 342"></polygon>
        </g>
        <g id="Group-4-Copy-3" transform="translate(1090.000000, 1388.000000)" fill="#26A0DA" fill-rule="nonzero">
            <polygon id="Path" points="238.219895 222.58 238.219895 344.5 125.780105 344.5 125.780105 221.14 0 8.5 118.633508 8.5 186.764398 124.66 255.371728 8.5 364 8.5"></polygon>
            <path d="M548.75,350 C497.36509,350 457.310994,336.168434 428.58651,308.504888 C399.862026,280.841342 385.5,242.049365 385.5,192.127793 L385.5,8.5 L498.482405,8.5 L498.482405,188.789106 C498.482405,213.272934 502.870802,231.079088 511.647727,242.208101 C520.424653,253.337113 533.11111,258.901536 549.707478,258.901536 C566.303846,258.901536 578.990303,253.337113 587.767229,242.208101 C596.544154,231.079088 600.932551,213.272934 600.932551,188.789106 L600.932551,8.5 L712,8.5 L712,192.127793 C712,242.049365 697.637974,280.841342 668.91349,308.504888 C640.189006,336.168434 600.13491,350 548.75,350 Z" id="Path"></path>
            <polygon id="Path" points="1031.8631 342 1030.90833 188.88 958.346429 311.76 908.69881 311.76 836.136905 194.16 836.136905 342 733.5 342 733.5 6 826.111905 6 934.954762 185.04 1040.93333 6 1133.54524 6 1134.5 342"></polygon>
            <path d="M1420.05095,283.44 L1293.0391,283.44 L1270.59716,342 L1156,342 L1302.11137,6 L1412.88863,6 L1559,342 L1442.49289,342 L1420.05095,283.44 Z M1390,202 L1357.5,118 L1325,202 L1390,202 Z" id="Shape"></path>
            <path d="M1726.23296,350 C1698.51967,350 1671.52351,346.892108 1645.24366,340.67623 C1618.96381,334.460351 1597.38281,326.092949 1580.5,315.57377 L1616.81379,233.333333 C1632.74097,242.57746 1650.57914,249.988588 1670.32884,255.56694 C1690.07855,261.145292 1709.0316,263.934426 1727.18859,263.934426 C1742.79723,263.934426 1753.94608,262.420325 1760.6355,259.392077 C1767.32491,256.363828 1770.66957,251.821524 1770.66957,245.765027 C1770.66957,238.752242 1766.28966,233.492732 1757.52971,229.986339 C1748.76977,226.479946 1734.35588,222.654848 1714.28764,218.510929 C1688.48561,213.091958 1666.98424,207.274621 1649.78288,201.058743 C1632.58153,194.842865 1617.61021,184.642603 1604.86846,170.45765 C1592.12672,156.272698 1585.75594,137.067516 1585.75594,112.84153 C1585.75594,91.8031735 1591.64891,72.6776817 1603.43502,55.4644809 C1615.22114,38.2512801 1632.82041,24.7040567 1656.23336,14.8224044 C1679.64631,4.94075205 1708.0759,0 1741.52298,0 C1764.45812,0 1786.99474,2.47037602 1809.13352,7.41120219 C1831.2723,12.3520283 1850.7828,19.6037773 1867.66561,29.1666667 L1833.74089,110.928962 C1800.9309,94.3532869 1769.87336,86.0655738 1740.56735,86.0655738 C1711.57989,86.0655738 1697.08637,93.0782541 1697.08637,107.103825 C1697.08637,113.797848 1701.38664,118.818289 1709.98732,122.165301 C1718.588,125.512312 1732.76298,129.098342 1752.51268,132.923497 C1777.99617,137.704942 1799.49754,143.203521 1817.01743,149.419399 C1834.53733,155.635277 1849.74756,165.75585 1862.64857,179.781421 C1875.54959,193.806992 1882,212.932484 1882,237.15847 C1882,258.196827 1876.10703,277.242629 1864.32092,294.296448 C1852.53481,311.350267 1834.93554,324.897491 1811.52258,334.938525 C1788.10963,344.979558 1759.68004,350 1726.23296,350 Z" id="Path"></path>
            <path d="M2092,350 C2056.04961,350 2023.75837,342.509182 1995.12532,327.527322 C1966.49226,312.545462 1944.06337,291.74649 1927.83797,265.129781 C1911.61258,238.513073 1903.5,208.470113 1903.5,175 C1903.5,141.529887 1911.61258,111.486927 1927.83797,84.8702186 C1944.06337,58.2535099 1966.49226,37.4545376 1995.12532,22.4726776 C2023.75837,7.49081762 2056.04961,0 2092,0 C2127.95039,0 2160.24163,7.49081762 2188.87468,22.4726776 C2217.50774,37.4545376 2239.93663,58.2535099 2256.16203,84.8702186 C2272.38742,111.486927 2280.5,141.529887 2280.5,175 C2280.5,208.470113 2272.38742,238.513073 2256.16203,265.129781 C2239.93663,291.74649 2217.50774,312.545462 2188.87468,327.527322 C2160.24163,342.509182 2127.95039,350 2092,350 Z M2092,257.5 C2106.01281,257.5 2118.67192,254.090748 2129.97771,247.272143 C2141.2835,240.453537 2150.28022,230.780777 2156.96815,218.253571 C2163.65608,205.726366 2167,191.058655 2167,174.25 C2167,157.441345 2163.65608,142.773634 2156.96815,130.246429 C2150.28022,117.719223 2141.2835,108.046463 2129.97771,101.227857 C2118.67192,94.4092516 2106.01281,91 2092,91 C2077.98719,91 2065.32808,94.4092516 2054.02229,101.227857 C2042.7165,108.046463 2033.71978,117.719223 2027.03185,130.246429 C2020.34392,142.773634 2017,157.441345 2017,174.25 C2017,191.058655 2020.34392,205.726366 2027.03185,218.253571 C2033.71978,230.780777 2042.7165,240.453537 2054.02229,247.272143 C2065.32808,254.090748 2077.98719,257.5 2092,257.5 Z" id="Shape"></path>
            <polygon id="Path" points="2414.81547 91.44 2414.81547 149.04 2554.4007 149.04 2554.4007 234.48 2414.81547 234.48 2414.81547 342 2302 342 2302 6 2574 6 2574 91.44"></polygon>
            <polygon id="Path" points="2693.08127 93.84 2595.5 93.84 2595.5 6 2903 6 2903 93.84 2805.41873 93.84 2805.41873 342 2693.08127 342"></polygon>
        </g>
        <g id="Group" transform="translate(1112.000000, 2473.000000)" fill="#BBCFD9" fill-rule="nonzero">
            <polygon id="Path" points="100.78534 91.4742857 100.78534 143 53.2146597 143 53.2146597 90.8657143 0 1 50.1910995 1 79.0157068 50.0914286 108.041885 1 154 1"></polygon>
            <path d="M233,146 C211.281416,146 194.351967,140.127154 182.211144,128.381285 C170.070321,116.635416 164,100.164445 164,78.9678771 L164,1 L211.753666,1 L211.753666,77.5502793 C211.753666,87.9460483 213.608486,95.5064941 217.318182,100.231844 C221.027878,104.957193 226.389994,107.319832 233.404692,107.319832 C240.41939,107.319832 245.781506,104.957193 249.491202,100.231844 C253.200898,95.5064941 255.055718,87.9460483 255.055718,77.5502793 L255.055718,1 L302,1 L302,78.9678771 C302,100.164445 295.929679,116.635416 283.788856,128.381285 C271.648033,140.127154 254.718584,146 233,146 Z" id="Path"></path>
            <polygon id="Path" points="437.488095 142 437.083333 77.2885714 406.321429 129.22 385.27381 129.22 354.511905 79.52 354.511905 142 311 142 311 0 350.261905 0 396.404762 75.6657143 441.333333 0 480.595238 0 481 142"></polygon>
            <path d="M602.041469,117.251429 L548.148104,117.251429 L538.625592,142 L490,142 L551.99763,0 L599.00237,0 L661,142 L611.563981,142 L602.041469,117.251429 Z M589.290323,83 L575.5,47.5 L561.709677,83 L589.290323,83 Z" id="Shape"></path>
            <path d="M61.6839388,318 C49.9538196,318 38.5272371,316.685805 27.4038482,314.057377 C16.2804594,311.428949 7.14593465,307.890733 4.8316906e-13,303.442623 L15.3704241,268.666667 C22.1118719,272.575612 29.6621801,275.70946 38.0215754,278.068306 C46.3809706,280.427152 54.4031732,281.606557 62.0884236,281.606557 C68.6950425,281.606557 73.4139851,280.966309 76.2453932,279.685792 C79.0768013,278.405276 80.4924841,276.48453 80.4924841,273.923497 C80.4924841,270.958091 78.6386137,268.734069 74.9308174,267.251366 C71.2230212,265.768663 65.1221024,264.151193 56.6278782,262.398907 C45.7067328,260.107457 36.6059148,257.647554 29.3251512,255.019126 C22.0443876,252.390697 15.7075218,248.077443 10.3143635,242.079235 C4.92120531,236.081026 2.22466664,227.959978 2.22466664,217.715847 C2.22466664,208.819628 4.71896491,200.732277 9.70763627,193.453552 C14.6963076,186.174827 22.1454957,180.446287 32.0554239,176.26776 C41.9653522,172.089232 53.998656,170 68.1556963,170 C77.8633811,170 87.4023866,171.044616 96.772999,173.13388 C106.143611,175.223143 114.401761,178.289597 121.547696,182.333333 L107.188484,216.907104 C93.3011014,209.897961 80.1554754,206.393443 67.7512115,206.393443 C55.4817765,206.393443 49.347151,209.358805 49.347151,215.289617 C49.347151,218.120233 51.1673146,220.243162 54.8076964,221.65847 C58.4480782,223.073778 64.4478768,224.590156 72.807272,226.20765 C83.5935885,228.229518 92.6944065,230.554632 100.109999,233.18306 C107.525592,235.811489 113.963578,240.091045 119.42415,246.021858 C124.884723,251.952671 127.614968,260.040022 127.614968,270.284153 C127.614968,279.180372 125.12067,287.234026 120.131999,294.445355 C115.143327,301.656685 107.694139,307.385225 97.7842112,311.631148 C87.8742829,315.87707 75.8409791,318 61.6839388,318 Z" id="Path"></path>
            <path d="M214.943643,318 C199.720147,318 186.046151,314.832454 173.921243,308.497268 C161.796335,302.162081 152.298633,293.367087 145.427852,282.112022 C138.55707,270.856956 135.121731,258.153076 135.121731,244 C135.121731,229.846924 138.55707,217.143044 145.427852,205.887978 C152.298633,194.632913 161.796335,185.837919 173.921243,179.502732 C186.046151,173.167546 199.720147,170 214.943643,170 C230.167138,170 243.841135,173.167546 255.966043,179.502732 C268.090951,185.837919 277.588653,194.632913 284.459434,205.887978 C291.330215,217.143044 294.765555,229.846924 294.765555,244 C294.765555,258.153076 291.330215,270.856956 284.459434,282.112022 C277.588653,293.367087 268.090951,302.162081 255.966043,308.497268 C243.841135,314.832454 230.167138,318 214.943643,318 Z M214.943643,279 C220.881081,279 226.244936,277.556443 231.035369,274.669286 C235.825802,271.782128 239.63785,267.686455 242.471628,262.382143 C245.305405,257.077831 246.722272,250.867178 246.722272,243.75 C246.722272,236.632822 245.305405,230.422169 242.471628,225.117857 C239.63785,219.813545 235.825802,215.717872 231.035369,212.830714 C226.244936,209.943557 220.881081,208.5 214.943643,208.5 C209.006205,208.5 203.64235,209.943557 198.851917,212.830714 C194.061484,215.717872 190.249436,219.813545 187.415658,225.117857 C184.581881,230.422169 183.165014,236.632822 183.165014,243.75 C183.165014,250.867178 184.581881,257.077831 187.415658,262.382143 C190.249436,267.686455 194.061484,271.782128 198.851917,274.669286 C203.64235,277.556443 209.006205,279 214.943643,279 Z" id="Shape"></path>
            <polygon id="Path" points="350.013042 208.608571 350.013042 232.951429 409.082075 232.951429 409.082075 269.06 350.013042 269.06 350.013042 314.5 302.272317 314.5 302.272317 172.5 417.376014 172.5 417.376014 208.608571"></polygon>
            <polygon id="Path" points="466.173846 209.622857 424.882777 209.622857 424.882777 172.5 555 172.5 555 209.622857 513.708931 209.622857 513.708931 314.5 466.173846 314.5"></polygon>
        </g>
        <g id="Group-2" transform="translate(2211.000000, 2473.000000)" fill="#26A0DA" fill-rule="nonzero">
            <polygon id="Path" points="100.78534 91.4742857 100.78534 143 53.2146597 143 53.2146597 90.8657143 0 1 50.1910995 1 79.0157068 50.0914286 108.041885 1 154 1"></polygon>
            <path d="M233,146 C211.281416,146 194.351967,140.127154 182.211144,128.381285 C170.070321,116.635416 164,100.164445 164,78.9678771 L164,1 L211.753666,1 L211.753666,77.5502793 C211.753666,87.9460483 213.608486,95.5064941 217.318182,100.231844 C221.027878,104.957193 226.389994,107.319832 233.404692,107.319832 C240.41939,107.319832 245.781506,104.957193 249.491202,100.231844 C253.200898,95.5064941 255.055718,87.9460483 255.055718,77.5502793 L255.055718,1 L302,1 L302,78.9678771 C302,100.164445 295.929679,116.635416 283.788856,128.381285 C271.648033,140.127154 254.718584,146 233,146 Z" id="Path"></path>
            <polygon id="Path" points="437.488095 142 437.083333 77.2885714 406.321429 129.22 385.27381 129.22 354.511905 79.52 354.511905 142 311 142 311 0 350.261905 0 396.404762 75.6657143 441.333333 0 480.595238 0 481 142"></polygon>
            <path d="M602.041469,117.251429 L548.148104,117.251429 L538.625592,142 L490,142 L551.99763,0 L599.00237,0 L661,142 L611.563981,142 L602.041469,117.251429 Z M589.290323,83 L575.5,47.5 L561.709677,83 L589.290323,83 Z" id="Shape"></path>
            <path d="M61.6839388,318 C49.9538196,318 38.5272371,316.685805 27.4038482,314.057377 C16.2804594,311.428949 7.14593465,307.890733 4.8316906e-13,303.442623 L15.3704241,268.666667 C22.1118719,272.575612 29.6621801,275.70946 38.0215754,278.068306 C46.3809706,280.427152 54.4031732,281.606557 62.0884236,281.606557 C68.6950425,281.606557 73.4139851,280.966309 76.2453932,279.685792 C79.0768013,278.405276 80.4924841,276.48453 80.4924841,273.923497 C80.4924841,270.958091 78.6386137,268.734069 74.9308174,267.251366 C71.2230212,265.768663 65.1221024,264.151193 56.6278782,262.398907 C45.7067328,260.107457 36.6059148,257.647554 29.3251512,255.019126 C22.0443876,252.390697 15.7075218,248.077443 10.3143635,242.079235 C4.92120531,236.081026 2.22466664,227.959978 2.22466664,217.715847 C2.22466664,208.819628 4.71896491,200.732277 9.70763627,193.453552 C14.6963076,186.174827 22.1454957,180.446287 32.0554239,176.26776 C41.9653522,172.089232 53.998656,170 68.1556963,170 C77.8633811,170 87.4023866,171.044616 96.772999,173.13388 C106.143611,175.223143 114.401761,178.289597 121.547696,182.333333 L107.188484,216.907104 C93.3011014,209.897961 80.1554754,206.393443 67.7512115,206.393443 C55.4817765,206.393443 49.347151,209.358805 49.347151,215.289617 C49.347151,218.120233 51.1673146,220.243162 54.8076964,221.65847 C58.4480782,223.073778 64.4478768,224.590156 72.807272,226.20765 C83.5935885,228.229518 92.6944065,230.554632 100.109999,233.18306 C107.525592,235.811489 113.963578,240.091045 119.42415,246.021858 C124.884723,251.952671 127.614968,260.040022 127.614968,270.284153 C127.614968,279.180372 125.12067,287.234026 120.131999,294.445355 C115.143327,301.656685 107.694139,307.385225 97.7842112,311.631148 C87.8742829,315.87707 75.8409791,318 61.6839388,318 Z" id="Path"></path>
            <path d="M214.943643,318 C199.720147,318 186.046151,314.832454 173.921243,308.497268 C161.796335,302.162081 152.298633,293.367087 145.427852,282.112022 C138.55707,270.856956 135.121731,258.153076 135.121731,244 C135.121731,229.846924 138.55707,217.143044 145.427852,205.887978 C152.298633,194.632913 161.796335,185.837919 173.921243,179.502732 C186.046151,173.167546 199.720147,170 214.943643,170 C230.167138,170 243.841135,173.167546 255.966043,179.502732 C268.090951,185.837919 277.588653,194.632913 284.459434,205.887978 C291.330215,217.143044 294.765555,229.846924 294.765555,244 C294.765555,258.153076 291.330215,270.856956 284.459434,282.112022 C277.588653,293.367087 268.090951,302.162081 255.966043,308.497268 C243.841135,314.832454 230.167138,318 214.943643,318 Z M214.943643,279 C220.881081,279 226.244936,277.556443 231.035369,274.669286 C235.825802,271.782128 239.63785,267.686455 242.471628,262.382143 C245.305405,257.077831 246.722272,250.867178 246.722272,243.75 C246.722272,236.632822 245.305405,230.422169 242.471628,225.117857 C239.63785,219.813545 235.825802,215.717872 231.035369,212.830714 C226.244936,209.943557 220.881081,208.5 214.943643,208.5 C209.006205,208.5 203.64235,209.943557 198.851917,212.830714 C194.061484,215.717872 190.249436,219.813545 187.415658,225.117857 C184.581881,230.422169 183.165014,236.632822 183.165014,243.75 C183.165014,250.867178 184.581881,257.077831 187.415658,262.382143 C190.249436,267.686455 194.061484,271.782128 198.851917,274.669286 C203.64235,277.556443 209.006205,279 214.943643,279 Z" id="Shape"></path>
            <polygon id="Path" points="350.013042 208.608571 350.013042 232.951429 409.082075 232.951429 409.082075 269.06 350.013042 269.06 350.013042 314.5 302.272317 314.5 302.272317 172.5 417.376014 172.5 417.376014 208.608571"></polygon>
            <polygon id="Path" points="466.173846 209.622857 424.882777 209.622857 424.882777 172.5 555 172.5 555 209.622857 513.708931 209.622857 513.708931 314.5 466.173846 314.5"></polygon>
        </g>
        <g id="Group-3" transform="translate(3332.000000, 2473.000000)" fill="#255C78" fill-rule="nonzero">
            <polygon id="Path" points="100.78534 91.4742857 100.78534 143 53.2146597 143 53.2146597 90.8657143 0 1 50.1910995 1 79.0157068 50.0914286 108.041885 1 154 1"></polygon>
            <path d="M233,146 C211.281416,146 194.351967,140.127154 182.211144,128.381285 C170.070321,116.635416 164,100.164445 164,78.9678771 L164,1 L211.753666,1 L211.753666,77.5502793 C211.753666,87.9460483 213.608486,95.5064941 217.318182,100.231844 C221.027878,104.957193 226.389994,107.319832 233.404692,107.319832 C240.41939,107.319832 245.781506,104.957193 249.491202,100.231844 C253.200898,95.5064941 255.055718,87.9460483 255.055718,77.5502793 L255.055718,1 L302,1 L302,78.9678771 C302,100.164445 295.929679,116.635416 283.788856,128.381285 C271.648033,140.127154 254.718584,146 233,146 Z" id="Path"></path>
            <polygon id="Path" points="437.488095 142 437.083333 77.2885714 406.321429 129.22 385.27381 129.22 354.511905 79.52 354.511905 142 311 142 311 0 350.261905 0 396.404762 75.6657143 441.333333 0 480.595238 0 481 142"></polygon>
            <path d="M602.041469,117.251429 L548.148104,117.251429 L538.625592,142 L490,142 L551.99763,0 L599.00237,0 L661,142 L611.563981,142 L602.041469,117.251429 Z M589.290323,83 L575.5,47.5 L561.709677,83 L589.290323,83 Z" id="Shape"></path>
            <path d="M61.6839388,318 C49.9538196,318 38.5272371,316.685805 27.4038482,314.057377 C16.2804594,311.428949 7.14593465,307.890733 4.8316906e-13,303.442623 L15.3704241,268.666667 C22.1118719,272.575612 29.6621801,275.70946 38.0215754,278.068306 C46.3809706,280.427152 54.4031732,281.606557 62.0884236,281.606557 C68.6950425,281.606557 73.4139851,280.966309 76.2453932,279.685792 C79.0768013,278.405276 80.4924841,276.48453 80.4924841,273.923497 C80.4924841,270.958091 78.6386137,268.734069 74.9308174,267.251366 C71.2230212,265.768663 65.1221024,264.151193 56.6278782,262.398907 C45.7067328,260.107457 36.6059148,257.647554 29.3251512,255.019126 C22.0443876,252.390697 15.7075218,248.077443 10.3143635,242.079235 C4.92120531,236.081026 2.22466664,227.959978 2.22466664,217.715847 C2.22466664,208.819628 4.71896491,200.732277 9.70763627,193.453552 C14.6963076,186.174827 22.1454957,180.446287 32.0554239,176.26776 C41.9653522,172.089232 53.998656,170 68.1556963,170 C77.8633811,170 87.4023866,171.044616 96.772999,173.13388 C106.143611,175.223143 114.401761,178.289597 121.547696,182.333333 L107.188484,216.907104 C93.3011014,209.897961 80.1554754,206.393443 67.7512115,206.393443 C55.4817765,206.393443 49.347151,209.358805 49.347151,215.289617 C49.347151,218.120233 51.1673146,220.243162 54.8076964,221.65847 C58.4480782,223.073778 64.4478768,224.590156 72.807272,226.20765 C83.5935885,228.229518 92.6944065,230.554632 100.109999,233.18306 C107.525592,235.811489 113.963578,240.091045 119.42415,246.021858 C124.884723,251.952671 127.614968,260.040022 127.614968,270.284153 C127.614968,279.180372 125.12067,287.234026 120.131999,294.445355 C115.143327,301.656685 107.694139,307.385225 97.7842112,311.631148 C87.8742829,315.87707 75.8409791,318 61.6839388,318 Z" id="Path"></path>
            <path d="M214.943643,318 C199.720147,318 186.046151,314.832454 173.921243,308.497268 C161.796335,302.162081 152.298633,293.367087 145.427852,282.112022 C138.55707,270.856956 135.121731,258.153076 135.121731,244 C135.121731,229.846924 138.55707,217.143044 145.427852,205.887978 C152.298633,194.632913 161.796335,185.837919 173.921243,179.502732 C186.046151,173.167546 199.720147,170 214.943643,170 C230.167138,170 243.841135,173.167546 255.966043,179.502732 C268.090951,185.837919 277.588653,194.632913 284.459434,205.887978 C291.330215,217.143044 294.765555,229.846924 294.765555,244 C294.765555,258.153076 291.330215,270.856956 284.459434,282.112022 C277.588653,293.367087 268.090951,302.162081 255.966043,308.497268 C243.841135,314.832454 230.167138,318 214.943643,318 Z M214.943643,279 C220.881081,279 226.244936,277.556443 231.035369,274.669286 C235.825802,271.782128 239.63785,267.686455 242.471628,262.382143 C245.305405,257.077831 246.722272,250.867178 246.722272,243.75 C246.722272,236.632822 245.305405,230.422169 242.471628,225.117857 C239.63785,219.813545 235.825802,215.717872 231.035369,212.830714 C226.244936,209.943557 220.881081,208.5 214.943643,208.5 C209.006205,208.5 203.64235,209.943557 198.851917,212.830714 C194.061484,215.717872 190.249436,219.813545 187.415658,225.117857 C184.581881,230.422169 183.165014,236.632822 183.165014,243.75 C183.165014,250.867178 184.581881,257.077831 187.415658,262.382143 C190.249436,267.686455 194.061484,271.782128 198.851917,274.669286 C203.64235,277.556443 209.006205,279 214.943643,279 Z" id="Shape"></path>
            <polygon id="Path" points="350.013042 208.608571 350.013042 232.951429 409.082075 232.951429 409.082075 269.06 350.013042 269.06 350.013042 314.5 302.272317 314.5 302.272317 172.5 417.376014 172.5 417.376014 208.608571"></polygon>
            <polygon id="Path" points="466.173846 209.622857 424.882777 209.622857 424.882777 172.5 555 172.5 555 209.622857 513.708931 209.622857 513.708931 314.5 466.173846 314.5"></polygon>
        </g>
        <g id="Group-5" transform="translate(4431.000000, 2473.000000)" fill="#314755" fill-rule="nonzero">
            <polygon id="Path" points="100.78534 91.4742857 100.78534 143 53.2146597 143 53.2146597 90.8657143 0 1 50.1910995 1 79.0157068 50.0914286 108.041885 1 154 1"></polygon>
            <path d="M233,146 C211.281416,146 194.351967,140.127154 182.211144,128.381285 C170.070321,116.635416 164,100.164445 164,78.9678771 L164,1 L211.753666,1 L211.753666,77.5502793 C211.753666,87.9460483 213.608486,95.5064941 217.318182,100.231844 C221.027878,104.957193 226.389994,107.319832 233.404692,107.319832 C240.41939,107.319832 245.781506,104.957193 249.491202,100.231844 C253.200898,95.5064941 255.055718,87.9460483 255.055718,77.5502793 L255.055718,1 L302,1 L302,78.9678771 C302,100.164445 295.929679,116.635416 283.788856,128.381285 C271.648033,140.127154 254.718584,146 233,146 Z" id="Path"></path>
            <polygon id="Path" points="437.488095 142 437.083333 77.2885714 406.321429 129.22 385.27381 129.22 354.511905 79.52 354.511905 142 311 142 311 0 350.261905 0 396.404762 75.6657143 441.333333 0 480.595238 0 481 142"></polygon>
            <path d="M602.041469,117.251429 L548.148104,117.251429 L538.625592,142 L490,142 L551.99763,0 L599.00237,0 L661,142 L611.563981,142 L602.041469,117.251429 Z M589.290323,83 L575.5,47.5 L561.709677,83 L589.290323,83 Z" id="Shape"></path>
            <path d="M61.6839388,318 C49.9538196,318 38.5272371,316.685805 27.4038482,314.057377 C16.2804594,311.428949 7.14593465,307.890733 4.8316906e-13,303.442623 L15.3704241,268.666667 C22.1118719,272.575612 29.6621801,275.70946 38.0215754,278.068306 C46.3809706,280.427152 54.4031732,281.606557 62.0884236,281.606557 C68.6950425,281.606557 73.4139851,280.966309 76.2453932,279.685792 C79.0768013,278.405276 80.4924841,276.48453 80.4924841,273.923497 C80.4924841,270.958091 78.6386137,268.734069 74.9308174,267.251366 C71.2230212,265.768663 65.1221024,264.151193 56.6278782,262.398907 C45.7067328,260.107457 36.6059148,257.647554 29.3251512,255.019126 C22.0443876,252.390697 15.7075218,248.077443 10.3143635,242.079235 C4.92120531,236.081026 2.22466664,227.959978 2.22466664,217.715847 C2.22466664,208.819628 4.71896491,200.732277 9.70763627,193.453552 C14.6963076,186.174827 22.1454957,180.446287 32.0554239,176.26776 C41.9653522,172.089232 53.998656,170 68.1556963,170 C77.8633811,170 87.4023866,171.044616 96.772999,173.13388 C106.143611,175.223143 114.401761,178.289597 121.547696,182.333333 L107.188484,216.907104 C93.3011014,209.897961 80.1554754,206.393443 67.7512115,206.393443 C55.4817765,206.393443 49.347151,209.358805 49.347151,215.289617 C49.347151,218.120233 51.1673146,220.243162 54.8076964,221.65847 C58.4480782,223.073778 64.4478768,224.590156 72.807272,226.20765 C83.5935885,228.229518 92.6944065,230.554632 100.109999,233.18306 C107.525592,235.811489 113.963578,240.091045 119.42415,246.021858 C124.884723,251.952671 127.614968,260.040022 127.614968,270.284153 C127.614968,279.180372 125.12067,287.234026 120.131999,294.445355 C115.143327,301.656685 107.694139,307.385225 97.7842112,311.631148 C87.8742829,315.87707 75.8409791,318 61.6839388,318 Z" id="Path"></path>
            <path d="M214.943643,318 C199.720147,318 186.046151,314.832454 173.921243,308.497268 C161.796335,302.162081 152.298633,293.367087 145.427852,282.112022 C138.55707,270.856956 135.121731,258.153076 135.121731,244 C135.121731,229.846924 138.55707,217.143044 145.427852,205.887978 C152.298633,194.632913 161.796335,185.837919 173.921243,179.502732 C186.046151,173.167546 199.720147,170 214.943643,170 C230.167138,170 243.841135,173.167546 255.966043,179.502732 C268.090951,185.837919 277.588653,194.632913 284.459434,205.887978 C291.330215,217.143044 294.765555,229.846924 294.765555,244 C294.765555,258.153076 291.330215,270.856956 284.459434,282.112022 C277.588653,293.367087 268.090951,302.162081 255.966043,308.497268 C243.841135,314.832454 230.167138,318 214.943643,318 Z M214.943643,279 C220.881081,279 226.244936,277.556443 231.035369,274.669286 C235.825802,271.782128 239.63785,267.686455 242.471628,262.382143 C245.305405,257.077831 246.722272,250.867178 246.722272,243.75 C246.722272,236.632822 245.305405,230.422169 242.471628,225.117857 C239.63785,219.813545 235.825802,215.717872 231.035369,212.830714 C226.244936,209.943557 220.881081,208.5 214.943643,208.5 C209.006205,208.5 203.64235,209.943557 198.851917,212.830714 C194.061484,215.717872 190.249436,219.813545 187.415658,225.117857 C184.581881,230.422169 183.165014,236.632822 183.165014,243.75 C183.165014,250.867178 184.581881,257.077831 187.415658,262.382143 C190.249436,267.686455 194.061484,271.782128 198.851917,274.669286 C203.64235,277.556443 209.006205,279 214.943643,279 Z" id="Shape"></path>
            <polygon id="Path" points="350.013042 208.608571 350.013042 232.951429 409.082075 232.951429 409.082075 269.06 350.013042 269.06 350.013042 314.5 302.272317 314.5 302.272317 172.5 417.376014 172.5 417.376014 208.608571"></polygon>
            <polygon id="Path" points="466.173846 209.622857 424.882777 209.622857 424.882777 172.5 555 172.5 555 209.622857 513.708931 209.622857 513.708931 314.5 466.173846 314.5"></polygon>
        </g>
        <text id="MAIN-LOGOTYPE" font-family="OpenSansCondensed-Bold, Open Sans Condensed" font-size="60" font-style="condensed" font-weight="bold" letter-spacing="0.329454545">
            <tspan x="300" y="372" fill="#818181">MAIN LOGO</tspan>
            <tspan x="579.761966" y="372" fill="#FFFFFF">TYPE</tspan>
        </text>
        <text id="ALTERNATIVE-COMPOSIT" font-family="OpenSansCondensed-Bold, Open Sans Condensed" font-size="60" font-style="condensed" font-weight="bold" letter-spacing="0.329454545" fill="#FFFFFF">
            <tspan x="300" y="2257">ALTERNATIVE COMPOSITION</tspan>
        </text>
    </g>
</svg>