<?xml version="1.0" encoding="UTF-8"?>
<svg width="342px" height="342px" viewBox="0 0 342 342" version="1.1" xmlns="http://www.w3.org/2000/svg" xmlns:xlink="http://www.w3.org/1999/xlink">
    <!-- Generator: Sketch 60.1 (88133) - https://sketch.com -->
    <title>LogoSVG</title>
    <desc>Created with Sketch.</desc>
    <defs>
        <linearGradient x1="33.1972511%" y1="67.4378469%" x2="45.3923759%" y2="-42.3361546%" id="linearGradient-1">
            <stop stop-color="#4ECEEF" offset="0%"></stop>
            <stop stop-color="#35B1E2" stop-opacity="0" offset="59.8748367%"></stop>
            <stop stop-color="#26A0DA" stop-opacity="0" offset="100%"></stop>
        </linearGradient>
        <linearGradient x1="4.52731898%" y1="21.5505112%" x2="106.308046%" y2="82.6655314%" id="linearGradient-2">
            <stop stop-color="#26A0DA" offset="0%"></stop>
            <stop stop-color="#314755" offset="100%"></stop>
        </linearGradient>
        <linearGradient x1="41.9486498%" y1="-20.2845095%" x2="58.2485027%" y2="68.7573998%" id="linearGradient-3">
            <stop stop-color="#FFFFFF" offset="0%"></stop>
            <stop stop-color="#B8CED8" stop-opacity="0.303130463" offset="49.3087584%"></stop>
            <stop stop-color="#FFFFFF" offset="100%"></stop>
        </linearGradient>
        <linearGradient x1="96.4469605%" y1="0%" x2="16.2799967%" y2="103.464207%" id="linearGradient-4">
            <stop stop-color="#FFFFFF" offset="0%"></stop>
            <stop stop-color="#B8CED8" offset="59.3202831%"></stop>
            <stop stop-color="#FFFFFF" offset="100%"></stop>
        </linearGradient>
    </defs>
    <g id="LogoSVG" stroke="none" stroke-width="1" fill="none" fill-rule="evenodd">
        <rect id="Rectangle-Copy-43" stroke="url(#linearGradient-1)" stroke-width="2" transform="translate(171.000000, 171.000000) rotate(-225.000000) translate(-171.000000, -171.000000) " x="35" y="35" width="272" height="272" rx="53.9540816"></rect>
        <g id="Group-Copy" transform="translate(20.000000, 20.000000)">
            <rect id="Rectangle-Copy-35" fill="url(#linearGradient-2)" transform="translate(149.904337, 149.904337) rotate(-315.000000) translate(-149.904337, -149.904337) " x="44.005102" y="44.005102" width="211.798469" height="211.798469" rx="38.2653061"></rect>
            <path d="M177.824877,185.11991 L133.303468,84.0002944 L156.139241,84.0002944 L177.824877,140.187691 C179.063107,144.911653 179.928195,151.147187 180.42014,158.894293 C180.913836,166.668987 179.682222,172.794648 177.824877,185.11991 Z" id="Path-Copy" fill="#16303D" opacity="0.300000012"></path>
            <path d="M222.080331,72.0800992 L233.801949,84.0002944 C213.77292,139.182136 199.867325,177.612296 192.085162,199.290773 C180.411918,231.808489 162.9992,245.100918 137.276931,245.100918 C120.128753,245.100918 106.286505,245.100918 95.7501896,245.100918 L78.2668003,228.016453 L72.5440707,220.199404 L128.336972,220.199404 L162.9992,206.517959 L192.085162,135.054145 L213.851159,77.5295336 L222.080331,72.0800992 Z" id="Path-8" fill="#16303D" opacity="0.300000012"></path>
            <path d="M192.092069,42.0918367 L222.080331,72.0800992 L178.143758,191.005643 C172.64236,204.685009 165.797699,214.273206 157.609571,219.770521 C149.421444,225.267837 139.378344,228.016453 127.47997,228.016453 C113.862335,228.016453 88.5182145,228.016453 78.2668003,228.016453 C77.8573614,228.016453 66.6525054,216.830111 44.6522324,194.457428 C44.778022,194.553549 113.866155,194.457428 127.47997,194.457428 C132.213732,194.457428 133.684993,193.051159 136.115843,190.238579 L91.9769375,84.0002944 L136.49966,84.0002944 L158.185296,140.187691 L192.092069,42.0918367 Z" id="Path" fill="#FFFFFF"></path>
            <path d="M158.185296,185.11991 L113.663887,84.0002944 L136.49966,84.0002944 L158.185296,140.187691 C159.423526,144.911653 160.288614,151.147187 160.780559,158.894293 C161.274256,166.668987 160.042642,172.794648 158.185296,185.11991 Z" id="Path" fill="url(#linearGradient-3)"></path>
            <path d="M211.218922,61.2200036 L222.080331,72.0800992 L178.143758,191.005643 C172.64236,204.685009 165.797699,214.273206 157.609571,219.770521 C149.421444,225.267837 139.378344,228.016453 127.47997,228.016453 L78.2668003,228.016453 L78.2668003,228.016453 C77.97828,228.016453 72.3291545,222.461729 61.3194236,211.352281 L133.366282,211.351436 C149.904337,211.351436 155.378011,204.81394 162.176158,190.660405 C166.576842,181.498314 182.92443,138.351513 211.218922,61.2200036 Z" id="Combined-Shape" fill="url(#linearGradient-4)"></path>
        </g>
    </g>
</svg>